<?xml version="1.0" encoding="UTF-8" standalone="no"?>
<!-- Generator: Adobe Illustrator 26.4.1, SVG Export Plug-In . SVG Version: 6.00 Build 0)  -->

<svg
   version="1.1"
   id="Lager_1"
   x="0px"
   y="0px"
   viewBox="0 0 463 436"
   style="enable-background:new 0 0 463 436;"
   xml:space="preserve"
   sodipodi:docname="UU_logo_color.svg"
   inkscape:version="1.2.2 (b0a84865, 2022-12-01)"
   xmlns:inkscape="http://www.inkscape.org/namespaces/inkscape"
   xmlns:sodipodi="http://sodipodi.sourceforge.net/DTD/sodipodi-0.dtd"
   xmlns="http://www.w3.org/2000/svg"
   xmlns:svg="http://www.w3.org/2000/svg"><defs
   id="defs165" /><sodipodi:namedview
   id="namedview163"
   pagecolor="#ffffff"
   bordercolor="#000000"
   borderopacity="0.25"
   inkscape:showpageshadow="2"
   inkscape:pageopacity="0.0"
   inkscape:pagecheckerboard="0"
   inkscape:deskcolor="#d1d1d1"
   showgrid="false"
   inkscape:zoom="2.3555046"
   inkscape:cx="142.85686"
   inkscape:cy="218"
   inkscape:window-width="2560"
   inkscape:window-height="1387"
   inkscape:window-x="1512"
   inkscape:window-y="25"
   inkscape:window-maximized="1"
   inkscape:current-layer="Lager_1" />
<style
   type="text/css"
   id="style2">
	.st0{fill-rule:evenodd;clip-rule:evenodd;}
	.st1{fill-rule:evenodd;clip-rule:evenodd;fill:#BD2B30;}
	.st2{fill:#BD2B30;}
</style>
<g
   id="g160"
   transform="matrix(5.4321063,0,0,5.4321063,-1019.4414,-967.87626)">
	<path
   class="st0"
   d="m 237.26,257.57 c -0.39,-0.18 -0.7,-0.38 -0.94,-0.73 -0.45,-0.7 -2,-2.93 -2.26,-3.37 -0.03,-0.06 -0.04,-0.17 0.03,-0.22 l 0.43,-0.12 c 0.51,-0.09 0.94,-0.52 1.11,-0.99 0.2,-0.57 0.16,-1.26 0.01,-1.84 -0.1,-0.4 -0.4,-0.79 -0.76,-1.04 -0.13,-0.09 -0.25,-0.14 -0.43,-0.18 -0.2,-0.05 -0.38,-0.08 -0.63,-0.08 -1.3,0 -2.44,0.01 -3.73,0 -0.06,0 -0.14,0.06 -0.13,0.13 0.01,0.1 0.14,0.08 0.25,0.13 0.22,0.09 0.35,0.36 0.34,0.69 l -0.01,6.81 c 0.03,0.44 -0.29,0.7 -0.55,0.7 -0.13,0 -0.16,0.22 0.06,0.21 0.69,-0.04 1.48,-0.03 2.17,0.04 0.06,0.01 0.16,-0.04 0.16,-0.13 0,-0.05 -0.03,-0.08 -0.12,-0.11 -0.38,-0.11 -0.53,-0.15 -0.57,-0.64 l 0.02,-2.66 c 0,-0.05 0.02,-0.5 0.02,-0.56 0,-0.19 0.66,-0.11 0.93,-0.09 0.23,0.02 0.34,0.22 0.45,0.39 0.83,1.19 1.32,1.98 1.98,2.99 0.19,0.29 0.43,0.48 0.73,0.63 0.45,0.23 0.86,0.27 1.37,0.31 0.04,0 0.11,-0.04 0.13,-0.08 0.02,-0.04 0.04,-0.15 -0.06,-0.19 z m -4.49,-4.71 c -0.3,0.02 -0.66,-0.02 -0.95,-0.1 -0.08,-0.02 -0.1,-0.08 -0.1,-0.2 0.01,-1.37 0.03,-2.54 0.03,-2.75 0,-0.19 0.37,-0.16 0.58,-0.16 0.64,-0.02 1.34,-0.07 1.74,0.19 0.25,0.17 0.39,0.44 0.48,0.65 0.13,0.31 0.1,0.78 0.08,1.12 -0.02,0.39 -0.28,0.74 -0.62,0.98 -0.1,0.08 -0.7,0.24 -1.24,0.27 z"
   id="path4" />
	<path
   class="st0"
   d="m 241.67,241.86 c -0.28,-0.07 -0.51,-0.24 -0.64,-0.49 -0.82,-1.64 -2.68,-6.38 -2.68,-6.38 -0.31,-0.75 -0.69,-1.71 -0.8,-1.97 -0.04,-0.15 -0.15,-0.03 -0.21,0.03 -0.86,1.96 -3.39,7.38 -3.74,8.01 -0.22,0.4 -0.51,0.61 -0.63,0.71 -0.15,0.12 -0.36,0.1 -0.36,0.22 0,0.05 0.06,0.12 0.11,0.12 0.3,0 1.29,-0.11 2.01,-0.02 0.08,0.01 0.12,-0.07 0.12,-0.14 0,-0.09 -0.17,-0.12 -0.26,-0.2 -0.19,-0.18 -0.21,-0.37 -0.15,-0.55 0.28,-0.8 0.63,-1.52 0.96,-2.26 0.03,-0.08 0.11,-0.16 0.2,-0.16 h 3.1 c 0.07,0 0.08,0.04 0.1,0.08 l 0.71,1.76 c 0.09,0.33 0.25,0.67 0.15,1.05 -0.07,0.25 -0.41,0.15 -0.41,0.34 0,0.05 0.06,0.09 0.14,0.08 0.82,-0.02 1.54,-0.1 2.33,-0.02 0.07,0.01 0.1,-0.05 0.1,-0.1 0.01,-0.05 -0.06,-0.09 -0.15,-0.11 z m -3.66,-3.8 h -2.13 c -0.05,-0.01 -0.05,-0.07 -0.02,-0.1 0.43,-0.97 0.89,-1.92 1.31,-2.9 0.02,-0.03 0.09,-0.1 0.11,-0.05 0.17,0.43 1.04,2.62 1.11,2.8 0.1,0.24 -0.01,0.25 -0.38,0.25 z"
   id="path6" />
	<path
   class="st0"
   d="m 258.22,241.86 c -0.28,-0.07 -0.51,-0.24 -0.64,-0.49 -0.82,-1.64 -2.68,-6.38 -2.68,-6.38 -0.31,-0.75 -0.69,-1.71 -0.8,-1.97 -0.04,-0.15 -0.15,-0.03 -0.21,0.03 -0.86,1.96 -3.39,7.38 -3.74,8.01 -0.22,0.4 -0.51,0.61 -0.63,0.71 -0.15,0.12 -0.36,0.1 -0.36,0.22 0,0.05 0.06,0.12 0.11,0.12 0.3,0 1.29,-0.11 2.01,-0.02 0.08,0.01 0.12,-0.07 0.12,-0.14 0,-0.09 -0.17,-0.12 -0.26,-0.2 -0.19,-0.18 -0.21,-0.37 -0.15,-0.55 0.28,-0.8 0.63,-1.52 0.96,-2.26 0.03,-0.08 0.11,-0.16 0.2,-0.16 h 3.1 c 0.07,0 0.08,0.04 0.1,0.08 l 0.71,1.76 c 0.09,0.33 0.25,0.67 0.15,1.05 -0.07,0.25 -0.41,0.15 -0.41,0.34 0,0.05 0.06,0.09 0.14,0.08 0.82,-0.02 1.54,-0.1 2.33,-0.02 0.07,0.01 0.1,-0.05 0.1,-0.1 0.02,-0.05 -0.05,-0.09 -0.15,-0.11 z m -3.65,-3.8 h -2.13 c -0.05,-0.01 -0.05,-0.07 -0.02,-0.1 0.43,-0.97 0.89,-1.92 1.31,-2.9 0.02,-0.03 0.09,-0.1 0.11,-0.05 0.17,0.43 1.04,2.62 1.11,2.8 0.09,0.24 -0.01,0.25 -0.38,0.25 z"
   id="path8" />
	<path
   d="m 230.98,233.37 c 0.2,0.05 0.18,0.18 0.18,0.34 0,0.41 0.01,0.71 0.02,1.19 0,0.09 0.02,0.23 -0.08,0.23 -0.21,0 -0.22,-0.47 -0.37,-0.65 -0.21,-0.26 -0.76,-0.66 -1.44,-0.66 -0.82,0 -1.4,0.48 -1.4,1.15 0,0.83 0.16,1.09 1.23,1.59 0.67,0.32 2.2,0.76 2.74,1.59 0.27,0.42 0.34,0.87 0.34,1.38 -0.02,0.64 -0.25,1.26 -0.66,1.77 -0.91,1.15 -3.19,0.97 -4.36,0.84 -0.16,-0.02 -0.36,0.08 -0.38,-0.12 0.03,-0.58 0.02,-1.11 0.02,-1.69 0,-0.16 0.09,-0.21 0.15,-0.16 0.07,0.09 0.08,0.2 0.13,0.3 0.41,0.77 1.04,1.06 2.24,1.06 0.76,0 1.55,-0.42 1.83,-1.22 0.17,-0.49 0.06,-1.06 -0.29,-1.41 -0.67,-0.8 -1.67,-1.09 -2.58,-1.45 -0.53,-0.21 -1.42,-0.79 -1.42,-2.24 0,-0.63 0.39,-1.29 0.82,-1.58 0.88,-0.59 2.35,-0.47 3.28,-0.26 z"
   id="path10" />
	<path
   d="m 245.08,233.38 c 0.07,-0.01 0.09,0.12 0,0.19 -0.19,0.13 -0.4,0.13 -0.5,0.38 -0.17,0.51 -0.09,1.1 -0.12,1.63 l -0.01,3.27 c 0.02,1.27 -0.16,1.83 0.59,2.41 0.29,0.22 1.73,0.16 2.1,0.12 0.8,-0.08 1.08,-0.5 1.25,-0.8 0.04,-0.07 0.07,-0.17 0.15,-0.17 0.12,0 0.11,0.09 0.1,0.21 -0.05,0.41 -0.11,0.95 -0.15,1.26 -0.02,0.09 -0.12,0.19 -0.21,0.19 -1.64,0.07 -4.14,-0.05 -5.44,0.02 -0.06,0 -0.16,-0.02 -0.16,-0.1 0,-0.09 0.08,-0.15 0.17,-0.19 0.18,-0.1 0.33,-0.09 0.46,-0.33 0.12,-0.22 0.15,-0.46 0.16,-0.72 0.06,-2.69 0.03,-5.86 -0.07,-6.74 -0.03,-0.26 -0.35,-0.33 -0.57,-0.43 -0.09,-0.04 -0.04,-0.2 0.07,-0.19 0.28,0.02 1.66,0.06 2.18,-0.01 z"
   id="path12" />
	<path
   d="m 206.42,255.77 0.01,-5.37 c -0.01,-0.24 -0.04,-0.33 -0.1,-0.5 -0.1,-0.29 -0.24,-0.5 -0.53,-0.65 -0.11,-0.06 -0.09,-0.22 -0.02,-0.21 0.66,0.05 1.23,0.02 1.83,0 0.07,0 0.13,0.02 0.13,0.07 0,0.16 -0.18,0.17 -0.29,0.28 -0.17,0.18 -0.3,0.33 -0.32,0.6 -0.08,1.13 -0.01,6.32 -0.01,6.32 0.01,0.51 0,0.89 0.02,1.42 0.01,0.15 -0.11,0.22 -0.16,0.17 -0.32,-0.33 -0.71,-0.65 -1.09,-1.09 -1.43,-1.32 -4.54,-4.42 -6,-5.73 -0.03,-0.03 -0.1,0.01 -0.1,0.05 0,0 -0.03,5.03 0.11,5.88 0.03,0.18 0.34,0.49 0.55,0.57 0.03,0.01 0.08,0.03 0.08,0.09 0,0.05 -0.02,0.08 -0.11,0.07 -0.71,-0.07 -1.41,-0.12 -2.08,-0.02 -0.07,0.01 -0.09,-0.05 -0.09,-0.1 0,-0.19 0.44,-0.12 0.64,-0.57 0.16,-0.36 0.12,-7.6 0.12,-7.6 v -0.8 c 0,-0.07 0.09,-0.08 0.13,-0.04 0.02,0 6.62,6.59 7.28,7.16 z"
   id="path14" />
	<path
   d="m 256.15,249.01 c 0.04,0 0.08,0.03 0.09,0.07 v 1.43 c 0,0.3 -0.2,0.24 -0.27,0.03 -0.08,-0.23 -0.16,-0.44 -0.23,-0.52 -0.24,-0.29 -0.54,-0.46 -0.89,-0.49 h -1.63 c -0.21,0 -0.3,0.09 -0.3,0.27 -0.04,2.6 -0.12,6.46 0.05,7.03 0.16,0.53 0.46,0.56 0.65,0.64 0.12,0.05 0.18,0.2 -0.06,0.2 -0.63,0 -2.48,0 -2.48,0 -0.2,0 -0.18,-0.18 -0.04,-0.22 0.23,-0.06 0.41,-0.12 0.52,-0.31 0.1,-0.18 0.16,-0.31 0.17,-0.61 0.01,-0.4 0.03,-4.82 0.02,-6.32 0,-0.49 -0.07,-0.62 -0.17,-0.65 -0.3,-0.09 -1.63,-0.1 -2.27,0.1 -0.37,0.13 -0.58,0.49 -0.58,0.86 0,0.07 -0.05,0.13 -0.13,0.13 -0.06,0 -0.09,-0.02 -0.09,-0.11 l 0.02,-1.44 c 0,-0.07 0.07,-0.13 0.26,-0.13 z"
   id="path16" />
	<path
   d="m 227.58,249.19 c 0,0.39 -0.01,0.63 0.01,0.99 0,0.03 -0.03,0.07 -0.07,0.07 -0.11,0 -0.23,-0.36 -0.47,-0.49 -0.65,-0.35 -1.42,-0.23 -2.24,-0.23 0,0 -0.46,0.02 -0.47,0.11 0,0.03 -0.04,1.99 -0.04,3.01 0,0.03 0.03,0.06 0.09,0.06 0.12,0 2.62,-0.01 2.62,-0.01 0.22,-0.01 0.27,-0.23 0.3,-0.29 0.05,-0.12 0.21,-0.14 0.2,-0.01 -0.04,0.5 -0.06,0.97 -0.06,1.45 0,0.04 -0.07,0.06 -0.12,-0.02 -0.19,-0.31 -0.47,-0.49 -0.86,-0.49 -0.75,0 -1.41,-0.04 -2.15,0.04 -0.05,0.01 -0.05,0.05 -0.05,0.11 0,0.92 -0.04,1.65 -0.02,2.57 0.01,0.32 0.09,0.62 0.34,0.83 0.5,0.33 1.18,0.23 1.74,0.21 0.46,-0.02 0.99,0.04 1.26,-0.36 0.16,-0.23 0.07,-0.35 0.28,-0.61 0.03,-0.04 0.13,-0.03 0.13,0.04 -0.03,0.62 -0.02,0.78 -0.04,1.47 0,0.1 -0.1,0.08 -0.1,0.08 0,0 -5.07,0.02 -5.28,0 -0.08,-0.01 -0.13,-0.15 -0.01,-0.19 0.28,-0.09 0.61,-0.11 0.61,-0.69 l 0.02,-2.65 c 0.03,-1.41 0.14,-2.89 -0.04,-4.32 -0.03,-0.23 -0.1,-0.48 -0.37,-0.56 -0.08,-0.03 -0.25,-0.01 -0.25,-0.13 0,-0.12 0.05,-0.17 0.22,-0.16 1.51,0.02 3.04,-0.01 4.55,-0.02 0.15,-0.01 0.27,0.03 0.27,0.19 z"
   id="path18" />
	<path
   d="m 221.21,249.01 c 0.13,0 0.16,0.11 0.07,0.16 -0.17,0.11 -0.48,0.18 -0.59,0.45 -1.13,2.78 -2.3,5.46 -3.46,8.23 -0.01,0.04 -0.09,0.08 -0.13,-0.02 0,0 -2.2,-4.82 -3.89,-8.25 -0.14,-0.28 -0.44,-0.25 -0.66,-0.37 -0.04,-0.02 -0.05,-0.07 -0.05,-0.11 0,-0.02 0.01,-0.08 0.11,-0.08 0.54,0.01 1.59,0.02 2.21,-0.02 0.05,0 0.12,0.04 0.11,0.12 -0.03,0.22 -0.48,0.23 -0.29,0.67 0.51,1.2 1.31,3.15 2.67,5.82 0.05,0.09 0.13,-0.15 0.18,-0.26 0.74,-1.68 1.38,-3.43 2.08,-5.13 0.06,-0.15 0.24,-0.73 -0.14,-0.93 -0.08,-0.04 -0.23,-0.08 -0.23,-0.16 0,-0.05 0.01,-0.12 0.1,-0.12 0.68,0 1.23,0 1.91,0 z"
   id="path20" />
	<path
   d="m 211.65,249.03 c 0.1,0 0.15,0.21 0,0.23 -0.41,0.05 -0.56,0.26 -0.57,1 -0.02,0.9 -0.02,6.04 -0.02,6.04 0,0.42 0.13,0.84 0.21,0.95 0.22,0.27 0.52,0.24 0.52,0.37 0,0.05 -0.01,0.13 -0.08,0.12 -0.77,-0.1 -1.56,0.05 -2.31,0.03 -0.06,0 -0.08,-0.07 -0.08,-0.11 0,-0.19 0.29,-0.08 0.43,-0.22 0.13,-0.13 0.19,-0.32 0.2,-0.48 0.06,-3.42 0.07,-4.64 0.02,-7.07 -0.01,-0.49 -0.6,-0.58 -0.77,-0.67 -0.05,-0.02 -0.03,-0.21 0.09,-0.2 0.79,0 1.56,-0.01 2.36,0.01 z"
   id="path22" />
	<path
   d="m 210.21,233.36 c 0.1,0 0.11,0.05 0.11,0.09 0,0.05 -0.05,0.09 -0.1,0.1 -0.51,0.16 -0.62,0.69 -0.64,1.15 0,1.38 0,2.93 0.01,4.35 -0.05,0.77 -0.16,1.46 -0.64,2.03 -0.37,0.44 -0.96,0.85 -1.91,1.01 -0.65,0.11 -1.3,0.17 -1.96,0.06 -0.95,-0.15 -1.28,-0.34 -1.88,-0.93 -0.55,-0.53 -0.65,-1.16 -0.7,-2.07 v -4.81 c -0.03,-0.43 -0.08,-0.7 -0.53,-0.86 -0.02,-0.01 -0.03,-0.08 -0.02,-0.11 0.03,-0.07 0.24,-0.03 0.36,-0.03 0.67,0.01 1.28,0.01 1.96,0.01 0.03,0 0.08,0.02 0.07,0.07 0,0.09 -0.16,0.09 -0.25,0.14 -0.56,0.29 -0.43,0.85 -0.45,1.44 v 2.99 c 0,1.16 -0.16,2.74 1.15,3.28 0.46,0.19 0.99,0.17 1.41,0.17 1.87,0 2.49,-1.21 2.52,-1.98 0.05,-1.3 0.04,-4.79 -0.03,-5.08 -0.09,-0.44 -0.48,-0.69 -0.76,-0.86 -0.05,-0.08 -0.02,-0.18 0.11,-0.17 0.43,0.03 1.84,0.04 2.17,0.01 z"
   id="path24" />
	<path
   class="st0"
   d="m 216.14,233.39 c -1.32,-0.15 -2.75,0.02 -4.09,-0.02 -0.11,0 -0.27,0 -0.27,0.1 0,0.17 0.2,0.13 0.33,0.17 0.21,0.07 0.48,0.36 0.5,0.98 0.02,0.5 0.03,4.67 0.01,5.48 -0.01,0.55 0.07,1.6 -0.58,1.81 -0.07,0.02 -0.19,0.08 -0.19,0.13 0,0.06 0.02,0.09 0.07,0.09 0.53,0 1.52,-0.07 2.36,0.01 0.08,0.01 0.1,-0.04 0.09,-0.11 -0.01,-0.09 -0.2,-0.11 -0.32,-0.17 -0.31,-0.17 -0.35,-0.67 -0.35,-1.04 0,-1.02 -0.05,-1.83 -0.03,-2.69 0,-0.18 0.09,-0.2 0.18,-0.19 3.35,0.29 3.81,-1.29 3.79,-2.49 0,-1 -0.4,-1.93 -1.5,-2.06 z m -0.68,3.88 c -0.31,0.01 -1.1,0.02 -1.53,0.01 -0.14,0 -0.17,-0.16 -0.17,-0.23 -0.05,-1.01 -0.08,-2.13 -0.01,-2.99 0.01,-0.15 0.19,-0.12 0.3,-0.13 0.67,-0.04 1.17,-0.05 1.73,0.03 0.23,0.03 0.48,0.2 0.61,0.43 0.2,0.35 0.21,0.76 0.25,1.17 0.08,0.99 -0.6,1.7 -1.18,1.71 z"
   id="path26" />
	<path
   class="st0"
   d="m 223.59,233.39 c -1.32,-0.15 -2.75,0.02 -4.09,-0.02 -0.11,0 -0.27,0 -0.27,0.1 0,0.17 0.2,0.13 0.33,0.17 0.21,0.07 0.48,0.36 0.5,0.98 0.02,0.5 0.03,4.67 0.01,5.48 -0.01,0.55 0.07,1.6 -0.58,1.81 -0.07,0.02 -0.19,0.08 -0.19,0.13 0,0.06 0.02,0.09 0.07,0.09 0.53,0 1.52,-0.07 2.36,0.01 0.08,0.01 0.1,-0.04 0.09,-0.11 -0.01,-0.09 -0.2,-0.11 -0.32,-0.17 -0.31,-0.17 -0.35,-0.67 -0.35,-1.04 0,-1.02 -0.05,-1.83 -0.03,-2.69 0,-0.18 0.09,-0.2 0.18,-0.19 3.35,0.29 3.81,-1.29 3.79,-2.49 0,-1 -0.4,-1.93 -1.5,-2.06 z m -0.68,3.88 c -0.31,0.01 -1.1,0.02 -1.53,0.01 -0.14,0 -0.17,-0.16 -0.17,-0.23 -0.05,-1.01 -0.08,-2.13 -0.01,-2.99 0.01,-0.15 0.19,-0.12 0.3,-0.13 0.67,-0.04 1.17,-0.05 1.73,0.03 0.23,0.03 0.48,0.2 0.61,0.43 0.2,0.35 0.21,0.76 0.25,1.17 0.08,0.99 -0.6,1.7 -1.18,1.71 z"
   id="path28" />
	<path
   d="m 197.28,249.09 c 0.1,0 0.11,0.05 0.11,0.09 0,0.05 -0.05,0.09 -0.1,0.1 -0.51,0.16 -0.62,0.69 -0.64,1.15 0,1.38 0,2.93 0.01,4.35 -0.05,0.77 -0.16,1.46 -0.64,2.03 -0.37,0.44 -0.96,0.85 -1.91,1.01 -0.65,0.11 -1.3,0.17 -1.96,0.06 -0.95,-0.15 -1.28,-0.34 -1.88,-0.93 -0.55,-0.53 -0.65,-1.16 -0.7,-2.07 v -4.81 c -0.03,-0.43 -0.08,-0.7 -0.53,-0.86 -0.02,-0.01 -0.03,-0.08 -0.02,-0.11 0.03,-0.07 0.24,-0.03 0.36,-0.03 0.67,0.01 1.28,0.01 1.96,0.01 0.03,0 0.08,0.02 0.07,0.07 0,0.09 -0.16,0.09 -0.25,0.14 -0.56,0.29 -0.43,0.85 -0.45,1.44 v 2.99 c 0,1.16 -0.16,2.74 1.15,3.28 0.46,0.19 0.99,0.17 1.41,0.17 1.87,0 2.49,-1.21 2.52,-1.98 0.05,-1.3 0.04,-4.79 -0.03,-5.08 -0.09,-0.44 -0.48,-0.69 -0.76,-0.86 -0.05,-0.08 -0.02,-0.18 0.11,-0.17 0.42,0.02 1.83,0.04 2.17,0.01 z"
   id="path30" />
	<path
   d="m 242.28,248.96 c 0.2,0.05 0.18,0.18 0.18,0.34 0,0.41 0.01,0.71 0.02,1.19 0,0.09 0.02,0.23 -0.08,0.23 -0.21,0 -0.22,-0.47 -0.37,-0.65 -0.21,-0.26 -0.76,-0.66 -1.44,-0.66 -0.82,0 -1.4,0.48 -1.4,1.15 0,0.83 0.16,1.09 1.23,1.59 0.67,0.32 2.2,0.76 2.74,1.59 0.27,0.42 0.34,0.87 0.34,1.38 -0.02,0.64 -0.25,1.26 -0.66,1.77 -0.91,1.15 -3.19,0.97 -4.36,0.84 -0.16,-0.02 -0.36,0.08 -0.38,-0.12 0.03,-0.58 0.02,-1.11 0.02,-1.69 0,-0.16 0.09,-0.21 0.15,-0.16 0.07,0.09 0.08,0.2 0.13,0.3 0.41,0.77 1.04,1.06 2.24,1.06 0.76,0 1.55,-0.42 1.83,-1.22 0.17,-0.49 0.06,-1.06 -0.29,-1.41 -0.67,-0.8 -1.67,-1.09 -2.58,-1.45 -0.53,-0.21 -1.42,-0.79 -1.42,-2.24 0,-0.63 0.39,-1.29 0.82,-1.58 0.88,-0.6 2.36,-0.48 3.28,-0.26 z"
   id="path32" />
	<path
   d="m 247.09,248.99 c 0.1,0 0.15,0.21 0,0.23 -0.41,0.05 -0.56,0.26 -0.57,1 -0.02,0.9 -0.02,6.04 -0.02,6.04 0,0.42 0.13,0.84 0.21,0.95 0.22,0.27 0.52,0.24 0.52,0.37 0,0.05 -0.01,0.13 -0.08,0.12 -0.77,-0.1 -1.56,0.05 -2.31,0.03 -0.06,0 -0.08,-0.07 -0.08,-0.11 0,-0.19 0.29,-0.08 0.43,-0.22 0.13,-0.13 0.19,-0.32 0.2,-0.48 0.06,-3.42 0.07,-4.64 0.02,-7.07 -0.01,-0.49 -0.6,-0.58 -0.77,-0.67 -0.05,-0.02 -0.03,-0.21 0.09,-0.2 0.78,0 1.56,-0.01 2.36,0.01 z"
   id="path34" />
	<path
   d="m 262.81,249.19 c 0,0.39 -0.01,0.63 0.01,0.99 0,0.03 -0.03,0.07 -0.07,0.07 -0.11,0 -0.23,-0.36 -0.47,-0.49 -0.65,-0.35 -1.42,-0.23 -2.24,-0.23 0,0 -0.46,0.02 -0.47,0.11 0,0.03 -0.04,1.99 -0.04,3.01 0,0.03 0.03,0.06 0.09,0.06 0.12,0 2.62,-0.01 2.62,-0.01 0.22,-0.01 0.27,-0.23 0.3,-0.29 0.05,-0.12 0.21,-0.14 0.2,-0.01 -0.04,0.5 -0.06,0.97 -0.06,1.45 0,0.04 -0.07,0.06 -0.12,-0.02 -0.19,-0.31 -0.47,-0.49 -0.86,-0.49 -0.75,0 -1.41,-0.04 -2.15,0.04 -0.05,0.01 -0.05,0.05 -0.05,0.11 0,0.92 -0.04,1.65 -0.02,2.57 0.01,0.32 0.09,0.62 0.34,0.83 0.5,0.33 1.18,0.23 1.74,0.21 0.46,-0.02 0.99,0.04 1.26,-0.36 0.16,-0.23 0.07,-0.35 0.28,-0.61 0.03,-0.04 0.13,-0.03 0.13,0.04 -0.03,0.62 -0.02,0.78 -0.04,1.47 0,0.1 -0.1,0.08 -0.1,0.08 0,0 -5.07,0.02 -5.28,0 -0.08,-0.01 -0.13,-0.15 -0.01,-0.19 0.28,-0.09 0.61,-0.11 0.61,-0.69 l 0.02,-2.65 c 0.03,-1.41 0.14,-2.89 -0.04,-4.32 -0.03,-0.23 -0.1,-0.48 -0.37,-0.56 -0.08,-0.03 -0.25,-0.01 -0.25,-0.13 0,-0.12 0.05,-0.17 0.22,-0.16 1.51,0.02 3.04,-0.01 4.55,-0.02 0.14,-0.01 0.27,0.03 0.27,0.19 z"
   id="path36" />
	<path
   d="m 271.95,248.99 c 0.04,0 0.08,0.03 0.09,0.07 v 1.43 c 0,0.3 -0.2,0.24 -0.27,0.03 -0.08,-0.23 -0.16,-0.44 -0.23,-0.52 -0.24,-0.29 -0.54,-0.46 -0.89,-0.49 h -1.63 c -0.21,0 -0.3,0.09 -0.3,0.27 -0.04,2.6 -0.12,6.46 0.05,7.03 0.16,0.53 0.46,0.56 0.65,0.64 0.12,0.05 0.18,0.2 -0.06,0.2 -0.63,0 -2.48,0 -2.48,0 -0.2,0 -0.18,-0.18 -0.04,-0.22 0.23,-0.06 0.41,-0.12 0.52,-0.31 0.1,-0.18 0.16,-0.31 0.17,-0.61 0.01,-0.4 0.03,-4.82 0.02,-6.32 0,-0.49 -0.07,-0.62 -0.17,-0.65 -0.3,-0.09 -1.63,-0.1 -2.27,0.1 -0.37,0.13 -0.58,0.49 -0.58,0.86 0,0.07 -0.05,0.13 -0.13,0.13 -0.06,0 -0.09,-0.02 -0.09,-0.11 l 0.02,-1.44 c 0,-0.07 0.07,-0.13 0.26,-0.13 z"
   id="path38" />
	<path
   class="st1"
   d="m 221.29,216.15 c -0.36,-0.27 -0.75,-0.51 -1.15,-0.7 -0.44,-0.06 -0.91,0 -1.15,0.39 -0.26,0.29 -0.2,0.74 -0.08,1.06 0.1,0.2 -0.47,0.34 -0.52,0.51 -0.23,0.29 0,0.77 0.2,0.93 0.22,0.18 0.42,0.31 0.63,0.46 0.33,0.27 0.72,0.4 1.1,0.56 0.05,0.01 0.16,0.04 0.2,-0.03 0.13,-0.17 0.01,-0.13 -0.11,-0.3 -0.17,-0.29 0.18,-0.76 0.29,-0.99 0.21,-0.43 0.33,-0.86 0.77,-1.1 0.19,-0.08 0.5,0.07 0.59,-0.16 -0.16,-0.31 -0.53,-0.38 -0.77,-0.63 z m -1.66,2.27 c -0.23,0.11 -0.42,-0.21 -0.59,-0.31 -0.01,-0.12 0.02,-0.29 0.07,-0.4 0.08,-0.07 0.29,-0.29 0.4,-0.24 0.09,0.12 0.28,0.26 0.42,0.33 0.03,0.16 -0.23,0.48 -0.3,0.62 z m 0.72,-1.43 c -0.05,0.08 -0.15,0.34 -0.26,0.37 -0.17,-0.06 -0.34,-0.21 -0.48,-0.36 -0.3,-0.32 0.03,-0.6 0.08,-0.8 0.26,-0.18 0.78,-0.17 1.01,0.01 0.17,0.28 -0.29,0.56 -0.35,0.78 z"
   id="path40" />
	<path
   class="st1"
   d="m 227.97,202.34 c -0.2,0.08 -0.02,0.39 -0.36,0.42 -0.27,0.02 -0.65,-0.22 -0.8,-0.49 0.12,-0.15 0.48,-0.21 0.47,-0.67 -0.01,-0.41 -0.11,-0.66 -0.6,-0.82 -0.34,-0.11 -0.75,-0.04 -1.13,-0.06 -0.14,0.02 -0.37,-0.03 -0.46,0.1 -0.05,0.11 0.13,0.11 0.19,0.21 0.08,0.5 0,1.34 -0.04,1.83 0,0.15 -0.32,0.22 -0.18,0.37 0.11,0.18 0.45,0.03 0.63,0.06 0.09,0.02 0.17,0.05 0.25,0 0.16,-0.11 0.01,-0.27 0.03,-0.43 0.01,-0.14 -0.16,-0.53 0.37,-0.2 0.3,0.19 0.53,0.49 0.88,0.57 0.21,0.04 0.6,0.11 0.75,-0.11 0.13,-0.21 0.23,-0.4 0.18,-0.67 -0.05,-0.06 -0.08,-0.16 -0.18,-0.11 z m -1.47,-0.42 c -0.08,0.17 -0.28,0.19 -0.45,0.17 -0.15,-0.07 -0.02,-0.53 -0.08,-0.64 -0.04,-0.09 -0.01,-0.24 0.04,-0.32 0.16,-0.06 0.41,-0.07 0.5,0.13 0.05,0.14 0.05,0.53 -0.01,0.66 z"
   id="path42" />
	<path
   class="st1"
   d="m 226.44,188.83 c -0.11,-0.13 -0.76,0.08 -0.89,0.14 -0.32,0.23 -0.14,0.64 -0.08,0.94 l -0.03,0.94 c -0.05,0.31 -0.14,0.61 -0.25,0.89 0.15,0.15 0.39,0 0.57,-0.06 0.11,-0.09 0.29,-0.08 0.33,-0.23 -0.01,-0.08 -0.11,-0.06 -0.16,-0.09 -0.04,-0.06 -0.09,-0.11 -0.07,-0.19 0.01,-0.2 0.18,-0.31 0.32,-0.43 0.15,-0.06 0.72,-0.37 0.89,-0.25 0.09,0.07 0.14,0.15 0.14,0.26 0.05,0.15 -0.37,0.36 -0.05,0.45 0.32,0.09 0.77,-0.33 1.08,-0.45 l 0.02,-0.06 c -0.27,-0.25 -0.22,-0.06 -0.43,-0.37 -0.02,-0.01 -1.08,-1.31 -1.39,-1.49 z m 0.2,1.36 c -0.1,0.05 -0.65,0.34 -0.75,0.26 -0.09,-0.23 -0.15,-0.81 -0.01,-1.06 0.3,-0.14 0.6,0.42 0.76,0.56 0.04,0.07 0.04,0.18 0,0.24 z"
   id="path44" />
	<path
   class="st1"
   d="m 223.53,191.92 c -0.13,-0.03 -0.26,0.01 -0.34,0.11 -0.06,0.11 -0.05,0.25 -0.04,0.37 -0.04,0.14 -0.12,0.28 -0.27,0.32 -0.14,0 -0.43,-0.02 -0.43,-0.02 0.11,-0.32 0.12,-0.81 -0.15,-1.07 -0.2,-0.21 -0.38,-0.36 -0.67,-0.3 -0.33,-0.01 -0.65,0.11 -0.81,0.42 -0.26,0.25 -0.62,0.44 -0.87,0.68 -0.05,0.08 0.02,0.16 0.07,0.2 0.25,-0.05 0.43,0.11 0.61,0.24 0.23,0.29 0.51,0.71 0.76,1 0.21,0.19 -0.07,0.46 0.14,0.65 0.05,0.05 0.15,0.06 0.21,0.03 l 0.72,-0.73 c 0.05,-0.13 -0.04,-0.3 -0.2,-0.23 -0.09,-0.01 -0.2,-0.05 -0.23,-0.17 0.35,-0.2 0.84,-0.08 1.22,-0.23 0.23,-0.11 0.48,-0.33 0.54,-0.59 0.03,-0.25 -0.01,-0.54 -0.26,-0.68 z m -1.87,1.07 c -0.23,0 -0.51,-0.6 -0.72,-0.69 0.01,-0.09 0.21,-0.29 0.29,-0.32 0.35,-0.26 0.66,0.25 0.69,0.52 0.03,0.16 -0.17,0.4 -0.26,0.49 z"
   id="path46" />
	<path
   class="st1"
   d="m 228.6,219.73 c -0.1,0.31 -0.22,0.61 -0.43,0.88 -0.23,0.29 -0.56,0.42 -0.88,0.51 -0.48,0.14 -0.64,-0.21 -1.02,0.19 -0.04,0.09 0.01,0.17 0.08,0.23 0.4,0.19 0.53,0.13 1,0.14 0.3,0.05 0.65,0.04 0.97,0.04 0.29,-0.14 0.61,-0.16 0.88,-0.3 0.29,-0.11 0.73,-0.5 1.06,-0.46 l 0.91,0.46 c 0.88,0.24 1.27,0.18 1.94,0.15 0.27,-0.03 0.47,-0.27 0.61,-0.49 0.01,-0.11 0.06,-0.26 -0.04,-0.35 -0.12,-0.14 -0.27,0.01 -0.42,-0.02 -0.48,-0.11 -1.01,-0.14 -1.34,-0.6 -0.1,-0.12 -0.19,-0.24 -0.28,-0.37 h -0.6 c 0.2,0.37 0.46,0.71 0.7,1.02 0.05,0.07 0.2,0.11 0.14,0.21 -0.18,0.06 -0.55,-0.24 -0.7,-0.34 -0.43,-0.22 -0.83,-0.8 -1.5,-0.44 -0.15,0.08 -0.24,0.14 -0.39,0.24 -0.08,0.05 -0.45,0.38 -0.55,0.34 l 0.32,-0.56 c 0.04,-0.16 0.1,-0.32 0.16,-0.47 z"
   id="path48" />
	<path
   class="st1"
   d="m 226.65,217.73 c 0.01,0 0.02,0.01 0.03,0.01 0.47,0.06 1,0.03 1.45,0.14 0.22,0.2 0.55,0.22 0.68,0.53 0.06,0.15 0.08,0.34 0.03,0.5 -0.09,0.27 -0.15,0.55 -0.24,0.83 h 0.61 c 0.09,-0.24 0.19,-0.48 0.22,-0.75 0.04,-0.27 0.12,-0.58 -0.06,-0.84 -0.07,-0.13 -0.18,-0.27 -0.32,-0.4 z m 4.33,0 c -0.17,0.31 -0.29,0.64 -0.29,0.92 0.04,0.39 0.18,0.75 0.36,1.09 h 0.6 c -0.27,-0.43 -0.43,-0.94 -0.24,-1.44 0.16,-0.27 0.49,-0.27 0.79,-0.29 0.39,-0.11 0.79,-0.18 1.19,-0.27 z"
   id="path50" />
	<path
   class="st1"
   d="m 218.65,213.73 c 0.01,0.01 0.01,0.01 0.02,0.02 0.48,0.63 1.16,0.96 1.71,1.5 0.8,0.53 1.65,0.96 2.49,1.37 0.49,0.24 1.01,0.39 1.54,0.55 0.68,0.34 1.52,0.33 2.24,0.56 h 2.41 c -0.33,-0.33 -0.76,-0.65 -0.94,-0.83 0.01,-0.1 0.07,-0.1 0.16,-0.14 0.38,0 1.31,0.58 1.6,0.27 0.09,-0.08 0.16,-0.27 0.3,-0.24 0.2,0.35 0.63,0.23 0.95,0.19 0.14,-0.01 0.42,-0.17 0.56,-0.21 0.02,0.03 0.05,0.08 0.03,0.11 -0.27,0.17 -0.54,0.49 -0.74,0.84 h 2.4 c 0.65,-0.13 1.29,-0.28 1.86,-0.58 0.79,-0.21 1.52,-0.58 2.26,-0.91 0.64,-0.38 1.28,-0.75 1.9,-1.18 0.52,-0.37 0.98,-0.85 1.43,-1.33 h -0.81 c -0.62,0.63 -1.38,0.98 -2.07,1.45 -1,0.57 -2.03,1.1 -3.12,1.48 -0.63,0.33 -1.36,0.41 -2.03,0.66 -0.17,0.02 -0.36,0.03 -0.45,-0.12 -0.03,-0.08 -0.07,-0.18 -0.01,-0.26 0.2,-0.17 0.54,-0.14 0.66,-0.45 0.02,-0.2 -0.15,-0.25 -0.31,-0.34 -0.3,-0.11 -0.6,0.07 -0.91,0.1 -0.35,0.11 -0.65,0.28 -1.07,0.15 -0.13,-0.09 -0.25,-0.18 -0.35,-0.3 l 0.01,-0.06 c 0.32,0.06 0.63,-0.05 0.96,-0.05 0.58,0.04 1.09,-0.18 1.68,-0.14 0.95,-0.05 1.82,-0.3 2.61,-0.75 0.82,-0.36 1.62,-0.79 2.36,-1.36 0,0 0.01,-0.01 0.01,-0.01 h -1.05 c -0.58,0.35 -1.16,0.68 -1.75,0.99 l -1.26,0.43 -0.36,0.08 -3.1,0.31 c -0.39,0.08 -0.76,-0.04 -1.14,-0.05 -0.52,-0.09 -1.06,-0.12 -1.58,-0.23 -1.78,-0.25 -3.51,-0.62 -5.01,-1.54 h -1.06 c 0.69,0.51 1.41,0.97 2.22,1.18 0.83,0.31 1.71,0.48 2.58,0.7 1.12,0.25 2.33,0.29 3.5,0.4 l 0.03,0.04 c -0.36,0.14 -0.37,0.82 -0.86,0.57 -0.51,-0.17 -0.87,-0.37 -1.37,-0.57 -0.23,0.01 -0.66,-0.13 -0.78,0.12 -0.06,0.14 -0.12,0.31 -0.07,0.48 0.04,0.07 0.13,0.11 0.21,0.08 0.08,-0.13 0.27,-0.04 0.39,-0.01 0.05,0.03 0.06,0.12 0.03,0.17 -0.39,0.26 -0.86,0.02 -1.29,0.03 -0.57,-0.18 -1.2,-0.23 -1.73,-0.51 -0.35,-0.11 -0.69,-0.28 -1.05,-0.36 -0.78,-0.42 -1.58,-0.77 -2.32,-1.26 -0.5,-0.31 -1.01,-0.67 -1.47,-1.08 z"
   id="path52" />
	<path
   class="st1"
   d="m 214.34,205.73 c 0.2,0.71 0.44,1.41 0.7,2.1 0.34,0.54 0.45,1.19 0.77,1.74 0.89,1.42 1.76,2.83 2.84,4.16 h 1.08 c -0.52,-0.46 -0.99,-0.99 -1.35,-1.57 -0.93,-1.15 -1.64,-2.38 -2.23,-3.66 -0.14,-0.45 -0.43,-0.85 -0.58,-1.29 -0.21,-0.48 -0.37,-0.98 -0.52,-1.48 z m 2,0 0.23,0.85 c 0.2,0.64 0.51,1.24 0.71,1.88 0.34,0.98 1.11,1.79 1.71,2.66 0.48,0.72 1.2,1.32 1.83,1.96 0.29,0.21 0.58,0.43 0.87,0.64 h 1.06 c -0.2,-0.12 -0.4,-0.26 -0.59,-0.4 -0.83,-0.57 -1.66,-1.27 -2.31,-2.06 -0.5,-0.52 -0.91,-1.1 -1.32,-1.68 -0.42,-0.43 -0.57,-0.99 -0.85,-1.48 -0.27,-0.77 -0.52,-1.55 -0.63,-2.38 z m 3.6,0 c 0.24,0.44 0.51,0.86 0.74,1.31 0.4,0.74 1.11,1.37 1.64,2.03 0.41,0.41 0.87,0.76 1.27,1.15 1.22,1 2.67,1.42 4.1,1.91 0.79,0.23 1.62,0.32 2.47,0.38 0.79,0.02 1.51,-0.12 2.24,-0.25 0.3,0.04 0.52,-0.13 0.79,-0.19 0.61,-0.06 1.09,-0.44 1.67,-0.62 0.63,-0.3 1.24,-0.69 1.87,-0.99 0.76,-0.54 1.3,-1.36 1.99,-2.01 0.3,-0.57 0.86,-1.03 1.09,-1.64 0.15,-0.38 0.39,-0.72 0.58,-1.09 h -0.67 c -0.16,0.33 -0.4,0.62 -0.63,0.92 -0.27,0.06 -0.46,-0.23 -0.64,-0.41 -0.15,-0.17 -0.29,-0.34 -0.43,-0.51 h -0.85 c 0.33,0.33 0.66,0.66 1.01,0.97 0.19,0.28 0.54,0.6 0.28,0.97 -0.26,0.6 -0.88,1.02 -1.36,1.5 -0.09,0.08 -0.22,0.11 -0.35,0.08 -0.42,-0.7 -0.73,-1.44 -1.1,-2.16 -0.2,-0.3 -0.29,-0.66 -0.46,-0.97 -0.06,-0.14 -0.15,-0.26 -0.23,-0.39 h -0.66 c 0.09,0.19 0.19,0.39 0.29,0.58 0.33,0.53 0.51,1.12 0.79,1.67 0.33,0.51 0.6,1.06 0.97,1.56 0.03,0.07 0.04,0.14 0,0.2 -0.38,0.36 -0.85,0.55 -1.31,0.75 -0.37,0.11 -0.73,0.27 -1.14,0.26 -0.11,-0.03 -0.21,-0.11 -0.22,-0.24 -0.24,-1.25 -0.26,-2.61 -0.48,-3.88 -0.04,-0.29 -0.05,-0.6 -0.08,-0.91 h -1.51 l 0.17,0.11 c 0.32,0.28 0.79,0.52 0.77,1 0.15,0.55 0.23,1.33 -0.14,1.81 -0.22,0.57 -0.64,1.22 -1.25,1.46 -0.54,0.33 -1.7,0.36 -2.2,-0.01 -0.81,-0.48 -1.21,-2.34 -0.8,-3.14 0.17,-0.41 0.65,-0.93 1.16,-1.24 h -1.41 c -0.73,0.68 -1.09,1.56 -1.15,2.53 l -0.14,0.95 c -0.29,0.33 -0.33,0.79 -0.64,1.1 -0.45,0.06 -0.77,-0.26 -1.13,-0.48 -0.23,-0.22 -0.2,-0.6 -0.09,-0.88 0.23,-0.63 0.76,-1.15 0.97,-1.79 0.29,-0.46 0.45,-0.97 0.73,-1.43 h -0.57 c -0.25,0.55 -0.5,1.1 -0.8,1.62 -0.24,0.31 -0.31,0.7 -0.54,1.01 -0.2,0.21 -0.21,0.63 -0.58,0.66 -0.57,-0.17 -1.05,-0.65 -1.44,-1.12 -0.11,-0.51 0.25,-0.91 0.48,-1.32 0.24,-0.28 0.45,-0.56 0.67,-0.85 h -0.75 c -0.16,0.18 -0.33,0.36 -0.51,0.51 -0.23,0.11 -0.36,0.44 -0.66,0.34 -0.23,-0.24 -0.42,-0.54 -0.57,-0.85 z m 23.32,0 c -0.01,0.07 -0.03,0.14 -0.04,0.2 -0.18,0.48 -0.32,0.97 -0.53,1.43 -0.26,0.49 -0.39,1.03 -0.73,1.5 -0.39,0.57 -0.73,1.17 -1.22,1.69 l -0.61,0.69 c -0.57,0.38 -1.03,1 -1.61,1.39 -0.33,0.23 -0.61,0.54 -0.97,0.73 -0.2,0.12 -0.41,0.25 -0.61,0.37 h 1.05 c 0.44,-0.27 0.84,-0.65 1.27,-0.95 0.88,-1.01 2.06,-1.86 2.73,-2.98 0.74,-0.94 1.23,-1.99 1.66,-3.07 0.17,-0.32 0.29,-0.65 0.39,-1 z m 1.84,0 c -0.06,0.18 -0.12,0.36 -0.18,0.54 -0.39,0.98 -0.77,1.96 -1.35,2.87 -0.49,1 -1.17,1.91 -1.81,2.84 -0.43,0.56 -1.03,0.98 -1.5,1.48 -0.08,0.09 -0.16,0.18 -0.24,0.27 h 0.81 c 0.31,-0.33 0.62,-0.65 0.95,-0.95 0.3,-0.39 0.61,-0.79 0.95,-1.17 0.5,-0.68 1,-1.38 1.35,-2.13 0.25,-0.43 0.5,-0.86 0.7,-1.31 0.45,-0.75 0.69,-1.58 0.92,-2.43 z m -17.79,4.08 c 0.26,0.57 0.87,0.75 1.37,0.99 0.42,0.07 0.79,0.27 1.22,0.33 0.11,0.04 0.09,0.15 0.1,0.24 -0.12,0.34 -0.57,0.14 -0.86,0.18 -0.48,-0.15 -1,-0.19 -1.46,-0.41 -0.41,-0.08 -0.8,-0.22 -1.14,-0.48 -0.08,-0.04 -0.03,-0.14 -0.02,-0.2 0.1,-0.29 0.2,-0.57 0.36,-0.84 0.03,-0.1 0.11,-0.2 0.11,-0.2 z m 5.7,-0.52 c 0.06,0.56 0.16,1.1 0.21,1.66 0,0.14 -0.14,0.23 -0.25,0.29 -0.31,0.17 -0.67,0.21 -1.04,0.26 -0.36,0.02 -0.77,0.15 -1.11,-0.01 -0.12,-0.15 -0.07,-0.36 0.03,-0.51 0.38,-0.35 0.9,-0.33 1.25,-0.74 0.38,-0.27 0.49,-0.68 0.72,-1.03 0.08,-0.11 0.19,0 0.19,0.08 z"
   id="path54" />
	<path
   class="st1"
   d="m 213.91,203.73 c 0.1,0.68 0.25,1.35 0.43,2 h 0.71 c -0.19,-0.66 -0.35,-1.34 -0.53,-2 z m 1.96,0 c 0.02,0.09 0.02,0.18 0.01,0.24 -0.07,0.26 0.28,0.96 0.31,1.21 l 0.15,0.55 h 0.69 c -0.01,-0.06 -0.02,-0.12 -0.02,-0.18 -0.08,-0.37 -0.2,-0.72 -0.23,-1.1 0.08,-0.36 0.48,-0.18 0.74,-0.21 0.24,0 0.44,-0.12 0.68,-0.12 0.41,0.05 1.02,-0.17 1.2,0.34 0.11,0.45 0.31,0.87 0.54,1.28 h 1.22 c -0.12,-0.27 -0.2,-0.56 -0.23,-0.84 0.03,-0.17 0.04,-0.39 0.23,-0.44 0.46,-0.2 1.13,0.09 1.64,0.01 l 0.41,0.02 c 0.17,0.02 0.35,0.05 0.46,0.16 -0.01,0.24 -0.23,0.4 -0.34,0.6 -0.15,0.16 -0.29,0.32 -0.43,0.48 h 0.75 c 0.23,-0.3 0.46,-0.61 0.73,-0.89 0.48,-0.47 1.24,-0.57 1.87,-0.36 0.06,0.05 0.08,0.13 0.08,0.2 -0.04,0.26 -0.24,0.46 -0.32,0.72 -0.05,0.11 -0.1,0.22 -0.15,0.33 h 0.57 c 0.04,-0.06 0.08,-0.12 0.12,-0.17 0.23,-0.41 0.42,-0.87 0.85,-1.15 0.47,-0.21 1.04,-0.07 1.35,0.34 0.14,0.07 0.2,-0.1 0.32,-0.11 0.23,-0.08 0.47,-0.11 0.69,0.02 0.09,0.11 0.2,0.19 0.36,0.17 0.27,-0.01 0.47,-0.2 0.72,-0.28 0.38,-0.05 0.86,-0.11 1.21,0.08 0.18,0.21 0.17,0.5 0.23,0.76 0.02,0.08 0.02,0.17 -0.04,0.23 -0.2,0.09 -0.15,-0.12 -0.48,-0.23 0,0 -0.54,-0.23 -0.75,-0.32 -0.39,-0.17 -0.85,-0.03 -1.27,-0.05 -0.57,0.15 -1.24,0.2 -1.72,0.59 -0.05,0.04 -0.1,0.09 -0.15,0.13 h 1.41 c 0.25,-0.15 0.5,-0.25 0.73,-0.26 0.52,-0.03 1.03,0.05 1.49,0.21 l 0.07,0.05 h 1.51 c -0.01,-0.15 -0.03,-0.3 -0.05,-0.44 -0.05,-0.18 -0.04,-0.41 0.02,-0.57 0.19,-0.2 0.54,-0.12 0.7,0.08 0.21,0.3 0.36,0.62 0.52,0.94 h 0.66 c -0.15,-0.23 -0.3,-0.47 -0.31,-0.76 0.01,-0.11 0.11,-0.2 0.2,-0.25 0.38,-0.05 0.79,-0.02 1.17,0.01 l 0.28,0.13 c 0.3,0.29 0.59,0.59 0.87,0.88 h 0.85 c -0.21,-0.25 -0.43,-0.49 -0.7,-0.7 -0.11,-0.14 -0.29,-0.27 -0.27,-0.46 l 0.11,-0.08 c 0.79,-0.04 1.59,-0.25 2.37,-0.04 l 0.28,0.11 0.06,0.11 c 0.08,0.4 0,0.74 -0.16,1.06 h 0.67 c 0.08,-0.16 0.15,-0.32 0.2,-0.48 0.17,-0.35 0.24,-0.74 0.47,-1.07 0.48,-0.17 1.06,-0.12 1.59,-0.17 l 0.94,0.02 c 0.14,0.13 0.02,0.34 -0.01,0.5 -0.1,0.4 -0.22,0.79 -0.31,1.2 h 0.78 c 0.15,-0.49 0.26,-0.99 0.45,-1.47 0.08,-0.06 0.14,-0.3 0.18,-0.53 z m 29.69,0 c -0.01,0.03 -0.01,0.05 -0.01,0.07 -0.06,0.68 -0.25,1.31 -0.45,1.93 h 0.6 c 0.03,-0.11 0.06,-0.22 0.09,-0.33 0.13,-0.55 0.22,-1.11 0.31,-1.67 z"
   id="path56" />
	<path
   class="st1"
   d="m 213.65,201.73 c 0.02,0.65 0.02,1.31 0.24,1.86 0.01,0.05 0.01,0.09 0.02,0.14 h 0.6 c -0.03,-0.09 -0.05,-0.18 -0.08,-0.27 -0.04,-0.16 -0.11,-0.39 0.05,-0.51 0.21,-0.13 0.39,0.37 0.62,0.17 0.14,-0.2 0.5,-0.47 0.56,-0.21 0.07,0.29 0.18,0.6 0.22,0.83 h 28.8 c 0.03,-0.19 0.05,-0.37 0.05,-0.44 0.01,-0.09 0,-0.19 0.06,-0.26 0.14,-0.07 0.28,0.1 0.44,0.12 0.16,0.02 0.33,-0.1 0.45,-0.05 0.09,0.13 -0.07,0.44 -0.12,0.63 h 0.53 c 0.05,-0.29 0.1,-0.58 0.15,-0.87 0.11,-0.36 0.11,-0.74 0.13,-1.13 h -0.75 c 0.03,0.02 0.05,0.03 0.07,0.06 l 0.05,0.21 c 0.06,0.14 -0.02,0.28 -0.1,0.39 -0.13,0.11 -0.27,0.21 -0.44,0.17 -0.18,-0.02 -0.31,-0.19 -0.4,-0.33 -0.03,-0.08 0.07,-0.42 0.12,-0.49 0,0 0,0 0,0 h -0.96 c 0.03,0.47 0.17,0.89 0.11,1.37 -0.05,0.13 -0.2,0.18 -0.32,0.22 -0.26,0.08 -0.51,-0.02 -0.79,0.01 -0.82,0.03 -1.65,0.15 -2.47,0.08 -0.38,0.04 -0.82,0.01 -1.19,0.07 -0.37,0.12 -0.82,0.04 -1.21,0.11 -0.37,-0.06 -0.73,0.03 -1.11,-0.01 -0.59,-0.08 -1.25,-0.06 -1.84,0.01 -0.99,-0.07 -2,-0.01 -3.01,-0.04 -0.57,-0.08 -1.2,0.02 -1.8,0.02 -0.92,-0.07 -1.84,0.06 -2.73,0 -1.48,-0.04 -3.01,0 -4.49,-0.02 -0.64,0.02 -1.2,-0.2 -1.86,-0.11 -1.01,-0.08 -2.09,-0.04 -3.03,-0.29 -0.39,0.04 -0.83,0.01 -1.22,0.02 -0.11,-0.01 -0.14,-0.13 -0.16,-0.21 -0.07,-0.41 -0.25,-0.8 -0.33,-1.21 h -1.03 c 0.04,0.09 0.06,0.17 0.03,0.18 l -0.25,0.34 c -0.11,0.11 -0.37,0.09 -0.55,0.06 -0.12,0.01 -0.17,-0.14 -0.23,-0.22 -0.03,-0.05 -0.07,-0.22 -0.09,-0.37 z"
   id="path58" />
	<path
   class="st1"
   d="m 213.72,199.73 c -0.09,0.42 -0.1,0.88 -0.12,1.32 0.03,0.22 0.04,0.45 0.05,0.68 h 0.73 c -0.01,-0.09 -0.02,-0.17 -0.01,-0.21 0.04,-0.06 0.13,-0.24 0.2,-0.25 0.15,-0.02 0.44,-0.02 0.56,0.04 0.11,0.03 0.26,0.25 0.34,0.42 h 1.03 c -0.06,-0.3 -0.07,-0.61 0.04,-0.93 0.06,-0.12 0.18,-0.25 0.31,-0.28 1.01,0.01 2.05,-0.05 3.07,-0.02 0.21,-0.09 0.45,0.02 0.67,-0.03 0.75,-0.11 1.48,0.05 2.24,0.02 0.7,-0.13 1.33,0.19 2.03,0.16 0.61,-0.2 1.38,-0.09 2.03,-0.07 0.38,0 0.76,-0.12 1.13,-0.01 0.4,0.05 0.83,0.02 1.21,-0.06 0.76,0.04 1.5,-0.05 2.25,-0.07 0.21,-0.04 0.4,0.05 0.61,0.01 0.6,-0.06 1.16,0 1.75,-0.08 0.97,0.07 2,0 2.96,0.09 0.29,-0.06 0.63,-0.01 0.92,-0.01 1.4,-0.11 2.89,-0.11 4.31,-0.11 0.44,-0.07 0.93,-0.02 1.38,-0.08 0.13,0.02 0.26,0.05 0.35,0.14 0.18,0.3 0.16,0.7 0.19,1.06 0,0.09 0,0.17 0.01,0.25 h 0.96 c 0.19,-0.15 0.5,-0.13 0.69,0 h 0.75 c 0,-0.13 0.01,-0.25 0.02,-0.38 -0.02,-0.55 -0.06,-1.09 -0.12,-1.62 h -0.58 c 0.09,0.68 0.15,1.46 0.15,1.46 0,0 -0.23,-0.18 -0.38,-0.16 -0.16,0.02 -0.54,0.23 -0.56,0.2 0.01,-0.38 -0.02,-0.79 -0.1,-1.17 -0.04,-0.1 -0.06,-0.21 -0.07,-0.32 h -1.5 c -0.04,0.01 -0.07,0.03 -0.1,0.05 -0.36,0.03 -0.73,0.02 -1.07,0.08 -0.37,-0.08 -0.73,0.05 -1.1,0 l -0.05,-0.04 c 0,-0.03 0,-0.06 -0.01,-0.09 h -0.53 c 0,0.03 -0.01,0.06 -0.02,0.09 -0.11,0.17 -0.34,0.13 -0.51,0.11 -0.12,-0.01 -0.21,-0.08 -0.33,-0.11 l -0.5,-0.04 c -0.04,-0.01 -0.08,-0.03 -0.11,-0.05 h -0.74 c 0.09,0.06 0.19,0.12 0.27,0.2 0.05,0.1 -0.08,0.08 -0.12,0.11 -0.35,-0.05 -0.72,-0.06 -1.09,-0.07 -0.21,-0.08 -0.42,-0.19 -0.66,-0.19 -0.03,-0.02 -0.06,-0.03 -0.1,-0.05 h -0.66 c 0.09,0.06 0.19,0.12 0.29,0.17 -0.03,0.06 -0.13,0.04 -0.19,0.06 -0.3,-0.03 -0.63,-0.01 -0.91,-0.1 -0.1,-0.04 -0.19,-0.08 -0.29,-0.13 h -1.14 c 0,0.02 0,0.04 -0.01,0.05 -0.12,0.08 -0.26,0.11 -0.41,0.12 -0.13,0 -0.27,0.02 -0.36,-0.08 -0.02,-0.03 -0.05,-0.06 -0.07,-0.09 h -0.66 c -0.03,0.08 -0.09,0.17 -0.2,0.17 -0.14,-0.02 -0.29,-0.05 -0.39,-0.17 h -0.53 c 0,0.04 0,0.08 -0.01,0.12 -0.04,0.11 -0.16,0.1 -0.25,0.12 -0.13,0 -0.19,-0.13 -0.24,-0.24 h -0.44 c 0,0.14 -0.04,0.28 -0.16,0.36 -0.11,0 -0.27,0.03 -0.33,-0.1 -0.07,-0.08 -0.09,-0.17 -0.07,-0.26 h -0.46 c -0.04,0.15 -0.12,0.29 -0.29,0.36 -0.22,0.02 -0.42,-0.01 -0.61,-0.07 -0.05,-0.04 -0.04,-0.12 -0.01,-0.17 0.03,-0.04 0.06,-0.08 0.09,-0.12 h -0.58 c -0.03,0.04 -0.05,0.08 -0.07,0.11 -0.16,0.25 -0.48,0.08 -0.71,0.14 -0.08,0 -0.05,-0.11 -0.04,-0.16 0.01,-0.03 0.03,-0.06 0.04,-0.09 h -0.59 c -0.05,0.06 -0.1,0.11 -0.15,0.17 -0.36,0.19 -0.86,0.15 -1.28,0.11 -0.07,-0.04 -0.1,-0.12 -0.06,-0.19 0.04,-0.03 0.09,-0.06 0.13,-0.09 h -1.33 c -0.42,0.13 -0.92,0.13 -1.33,0 h -3.04 c -0.09,0.04 -0.23,-0.02 -0.32,0.02 -0.37,0.08 -0.78,0.02 -1.16,0.02 -0.17,0 -0.34,-0.02 -0.51,-0.04 h -1.41 c -0.07,0.35 -0.13,0.7 -0.2,1.04 -0.13,0.08 -0.24,-0.07 -0.37,-0.11 -0.12,-0.13 -0.26,-0.3 -0.46,-0.21 -0.13,0.03 -0.26,0.06 -0.35,0.17 -0.05,0.02 -0.1,-0.02 -0.11,-0.07 0.01,-0.28 0.04,-0.55 0.08,-0.83 z"
   id="path60" />
	<path
   class="st1"
   d="m 214.07,197.73 c -0.06,0.24 -0.09,0.49 -0.08,0.75 -0.2,0.28 -0.17,0.65 -0.21,1 -0.02,0.08 -0.04,0.16 -0.06,0.25 h 0.68 c 0.07,-0.53 0.19,-1.05 0.27,-1.58 0.04,-0.14 0.07,-0.28 0.1,-0.42 z m 2.1,0 c -0.09,0.42 -0.18,0.84 -0.22,1.28 -0.05,0.24 -0.1,0.48 -0.14,0.72 h 1.41 c -0.18,-0.02 -0.36,-0.06 -0.53,-0.1 -0.11,-0.14 -0.2,-0.27 -0.16,-0.46 -0.02,-0.52 0.1,-0.98 0.24,-1.43 z m 3.72,0 c -0.24,0.63 -0.37,1.3 -0.61,1.93 -0.02,0.03 -0.04,0.05 -0.07,0.07 h 3.04 c -0.01,0 -0.03,-0.01 -0.04,-0.01 -0.07,-0.05 -0.02,-0.14 0,-0.19 0.66,-0.53 1.47,-0.68 2.2,-1.05 0.46,-0.11 0.83,-0.44 1.28,-0.59 0.13,-0.04 0.24,-0.1 0.35,-0.16 h -0.9 c -0.18,0.08 -0.35,0.16 -0.54,0.22 -0.67,0.26 -1.34,0.53 -1.98,0.85 -0.51,0.21 -0.98,0.6 -1.58,0.51 -0.07,-0.05 -0.13,-0.12 -0.07,-0.2 0.53,-0.46 1.22,-0.56 1.83,-0.86 0.19,-0.08 0.7,-0.29 1.27,-0.53 h -1.31 c -0.54,0.15 -1.04,0.42 -1.62,0.44 -0.08,-0.04 -0.2,-0.09 -0.22,-0.2 -0.01,-0.1 0.01,-0.18 0.05,-0.25 z m 7,0 c -0.12,0.08 -0.24,0.16 -0.39,0.26 -0.83,0.67 -1.77,1.06 -2.64,1.63 -0.09,0.04 -0.18,0.08 -0.28,0.11 h 1.33 c 0.74,-0.5 1.4,-1.2 2.14,-1.71 0.13,-0.18 0.27,-0.22 0.35,-0.29 z m 0.97,0 c -0.01,0.01 -0.02,0.02 -0.03,0.03 -0.17,0.22 -0.33,0.45 -0.46,0.69 -0.32,0.45 -0.74,0.86 -1.12,1.28 h 0.59 c 0.15,-0.29 0.43,-0.49 0.67,-0.75 0.17,-0.26 0.37,-0.47 0.52,-0.75 0.11,-0.07 0.17,-0.19 0.16,-0.32 0,-0.09 -0.02,-0.07 -0.08,-0.14 -0.04,-0.01 -0.08,-0.03 -0.11,-0.04 z m 0.92,0 c 0.23,0.12 0.46,0.22 0.72,0.26 0.24,-0.01 0.5,0.03 0.72,-0.04 0.13,0.1 0.34,-0.05 0.42,0.12 0.03,0.24 0.16,0.44 0.24,0.66 -0.07,0.36 0.11,0.66 0.1,1 h 0.53 c -0.01,-0.02 -0.02,-0.03 -0.03,-0.05 -0.11,-0.42 -0.25,-0.85 -0.27,-1.31 -0.06,-0.14 -0.15,-0.28 -0.14,-0.43 0.11,-0.08 0.2,0.05 0.26,0.13 0.24,0.55 0.82,0.97 0.79,1.62 0,0.01 -0.01,0.02 -0.01,0.04 h 0.66 c -0.46,-0.6 -0.77,-1.26 -1.17,-1.89 -0.02,-0.05 0.01,-0.09 0.05,-0.11 z m 3,0 c 0.09,0.06 0.09,0.22 0.24,0.23 0.3,0.25 0.6,0.57 0.89,0.88 0.26,0.25 0.47,0.54 0.68,0.79 0.01,0.03 0.02,0.06 0.02,0.1 h 1.14 c -0.29,-0.15 -0.57,-0.34 -0.84,-0.54 -0.57,-0.44 -1.01,-1.05 -1.59,-1.46 z m 1.02,0 c 0.48,0.19 0.84,0.63 1.29,0.88 0.44,0.31 0.97,0.43 1.37,0.85 0.13,0.09 0.25,0.19 0.38,0.28 h 0.66 c -0.57,-0.29 -1.08,-0.69 -1.59,-1.12 -0.52,-0.1 -0.91,-0.52 -1.35,-0.83 -0.03,-0.01 -0.05,-0.03 -0.08,-0.04 z m 1.46,0 c 0.07,0.04 0.14,0.07 0.22,0.08 0.39,0.13 0.79,0.23 1.13,0.48 0.26,0.09 0.45,0.33 0.71,0.44 0.45,0.3 1.04,0.22 1.43,0.66 0.13,0.16 0.29,0.24 0.45,0.34 h 0.74 c -0.19,-0.11 -0.33,-0.32 -0.54,-0.42 -0.17,-0.05 -0.33,-0.15 -0.45,-0.29 -0.31,-0.05 -0.54,-0.27 -0.82,-0.39 -0.28,-0.17 -0.58,-0.28 -0.87,-0.42 -0.25,-0.23 -0.56,-0.33 -0.84,-0.49 z m 1.77,0 c 0.04,0.02 0.08,0.03 0.12,0.04 l 0.23,0.03 c 0.17,0.22 0.48,0.12 0.69,0.23 0.38,0.13 0.79,0.17 1.1,0.42 0.49,0.09 0.93,0.3 1.41,0.4 0.26,0.19 0.56,0.36 0.79,0.57 0.04,0.08 0.04,0.19 0.03,0.29 h 0.53 c -0.04,-0.49 -0.08,-0.97 -0.35,-1.37 -0.08,-0.21 -0.15,-0.42 -0.23,-0.63 h -0.85 c 0.19,0.15 0.21,0.39 0.24,0.61 -0.04,0.08 -0.11,0.14 -0.21,0.11 -0.74,-0.14 -1.37,-0.52 -2.09,-0.73 z m 7.27,0 c 0.04,0.09 0.08,0.18 0.12,0.26 0.1,0.48 0.4,0.88 0.42,1.4 -0.03,0.3 -0.37,0.26 -0.6,0.34 h 1.5 c -0.02,-0.17 -0.02,-0.35 -0.1,-0.5 -0.13,-0.5 -0.26,-1.01 -0.41,-1.5 z m 2.03,0 c 0.11,0.43 0.19,0.87 0.26,1.32 0.04,0.18 0.08,0.42 0.12,0.68 h 0.58 c -0.06,-0.55 -0.15,-1.09 -0.27,-1.62 -0.03,-0.13 -0.06,-0.26 -0.09,-0.38 z m -17.12,2 c 0.28,-0.39 0.61,-0.77 0.81,-1.2 0.11,-0.19 -0.09,-0.3 -0.12,-0.46 -0.06,-0.05 -0.14,-0.09 -0.22,-0.08 -0.17,0.2 -0.23,0.46 -0.35,0.69 -0.18,0.37 -0.47,0.7 -0.7,1.05 z m 1.28,0 c 0.01,-0.1 0.06,-0.21 0.07,-0.3 0.12,-0.29 0.11,-0.63 0.2,-0.94 0.01,-0.09 -0.07,-0.17 -0.15,-0.2 -0.14,-0.02 -0.27,0.01 -0.33,0.14 -0.15,0.2 -0.03,0.48 -0.09,0.71 -0.09,0.17 -0.1,0.4 -0.16,0.59 z m 0.99,0 c -0.01,-0.02 -0.02,-0.04 -0.03,-0.06 -0.1,-0.35 0.02,-0.72 0.08,-1.06 -0.02,-0.13 -0.09,-0.27 -0.23,-0.31 -0.1,-0.01 -0.22,0.02 -0.26,0.11 -0.04,0.2 -0.12,0.46 0.03,0.63 0.02,0.17 -0.04,0.31 -0.05,0.46 0.02,0.07 0.03,0.14 0.03,0.22 z"
   id="path62" />
	<path
   class="st1"
   d="m 214.41,196.48 c -0.01,0.02 -0.01,0.04 -0.02,0.06 -0.08,0.41 -0.22,0.79 -0.32,1.2 h 0.7 c 0.06,-0.26 0.11,-0.52 0.16,-0.78 l 0.18,-0.47 h -0.7 z m 2.06,0 c -0.05,0.15 -0.09,0.3 -0.14,0.45 -0.04,0.27 -0.1,0.54 -0.16,0.8 h 0.6 c 0.13,-0.41 0.28,-0.82 0.37,-1.25 z m 4.07,0 c -0.18,0.27 -0.29,0.57 -0.47,0.83 -0.06,0.14 -0.12,0.27 -0.17,0.42 h 1.07 c 0.03,-0.06 0.08,-0.11 0.12,-0.17 0.26,-0.07 0.47,-0.24 0.73,-0.32 0.8,-0.03 2.46,-0.53 3.35,-0.76 h -2.04 c -0.42,0.08 -0.85,0.14 -1.3,0.18 -0.12,-0.04 -0.26,-0.03 -0.38,-0.08 0.01,-0.03 0.02,-0.06 0.03,-0.09 z m 5.91,0 c -0.17,0.05 -0.31,0.09 -0.37,0.09 -0.48,0.1 -2.84,0.96 -3.28,1.15 -0.02,0 -0.04,0.01 -0.06,0.01 h 1.31 c 0.88,-0.37 1.91,-0.79 2.22,-0.9 0.09,-0.08 0.56,-0.24 0.72,-0.35 z m 1.12,0 c 0.1,0.37 0.29,0.7 0.64,0.94 0.19,0.1 0.38,0.21 0.57,0.31 h 2.87 c 0.02,-0.01 0.03,-0.01 0.05,-0.02 0.04,0 0.06,0 0.09,0.02 h 0.53 c -0.02,-0.01 -0.03,-0.02 -0.05,-0.03 -0.08,-0.05 -0.15,-0.14 -0.15,-0.24 0.01,-0.05 0.05,-0.09 0.11,-0.11 0.2,0.01 0.3,0.26 0.47,0.34 0.04,0.01 0.07,0.02 0.11,0.04 h 0.69 c -0.35,-0.19 -0.66,-0.47 -1.03,-0.62 -0.07,-0.05 -0.14,-0.14 -0.08,-0.23 0.05,-0.14 0.13,-0.27 0.19,-0.4 h -0.42 c -0.09,0.23 -0.23,0.43 -0.44,0.61 -0.25,0.22 -0.59,0.2 -0.9,0.27 -0.73,0.17 -1.41,-0.06 -1.96,-0.48 -0.21,-0.09 -0.34,-0.23 -0.43,-0.4 z m 6.64,0 c 0.13,0.03 0.25,0.07 0.37,0.12 0.68,0.2 1.44,0.21 2.12,0.44 0.53,0.08 1,0.29 1.53,0.38 0.4,0.11 0.81,0.2 1.22,0.28 0.02,0.01 0.03,0.02 0.05,0.03 h 0.85 c -0.08,-0.22 -0.18,-0.44 -0.32,-0.64 -0.06,-0.22 -0.16,-0.41 -0.28,-0.61 h -0.67 c 0.12,0.21 0.25,0.42 0.28,0.67 -0.02,0.07 -0.1,0.11 -0.17,0.11 -0.35,-0.05 -0.66,-0.2 -1,-0.28 -0.49,-0.08 -0.92,-0.3 -1.44,-0.3 -0.27,-0.03 -0.51,-0.12 -0.76,-0.19 z m 8.63,0 c 0.15,0.42 0.29,0.84 0.46,1.25 h 0.93 c -0.13,-0.43 -0.29,-0.85 -0.48,-1.25 z m 2.13,0 c 0.13,0.41 0.25,0.83 0.36,1.25 h 0.58 c -0.12,-0.43 -0.27,-0.84 -0.44,-1.25 z m -18.93,1.25 c 0.3,-0.17 0.56,-0.4 0.86,-0.54 0.16,-0.07 -0.01,-0.33 -0.14,-0.28 -0.57,0.21 -1.08,0.56 -1.62,0.82 z m 1.34,0 c 0.04,-0.04 0.07,-0.08 0.06,-0.16 -0.1,-0.1 -0.22,-0.14 -0.26,-0.06 -0.09,0.08 -0.18,0.15 -0.29,0.22 z m 0.61,0 c -0.05,-0.02 -0.09,-0.03 -0.13,0 z m 7.43,0 c -0.02,-0.01 -0.04,-0.03 -0.06,-0.04 -0.38,-0.08 -0.73,-0.2 -1.07,-0.39 -0.31,-0.04 -0.57,-0.18 -0.88,-0.23 -0.1,0 -0.23,-0.02 -0.24,0.1 0.03,0.32 0.36,0.25 0.58,0.36 0.18,0.02 0.34,0.12 0.51,0.21 z m 2.03,0 c -0.01,0 -0.02,-0.01 -0.03,-0.01 -0.57,-0.2 -1.15,-0.36 -1.72,-0.54 -0.49,-0.12 -1,-0.17 -1.45,-0.4 -0.12,-0.04 -0.28,-0.03 -0.39,0.02 -0.06,0.03 -0.09,0.11 -0.04,0.17 0.26,0.23 0.66,0.16 0.94,0.35 0.42,0.15 0.85,0.27 1.27,0.42 z"
   id="path64" />
	<path
   class="st1"
   d="m 214.89,195.22 c -0.19,0.41 -0.35,0.82 -0.49,1.25 h 0.7 l 0.25,-0.65 c 0.12,-0.2 0.22,-0.4 0.32,-0.6 z m 1.99,0 c -0.16,0.41 -0.28,0.83 -0.41,1.26 h 0.67 c 0,0 0,-0.01 0,-0.01 0.07,-0.44 0.26,-0.84 0.44,-1.24 z m 4.59,0 c -0.08,0.09 -0.15,0.19 -0.23,0.28 -0.22,0.22 -0.45,0.45 -0.54,0.74 -0.07,0.07 -0.12,0.15 -0.17,0.23 h 0.93 c 0.07,-0.18 0.21,-0.26 0.36,-0.43 0.18,-0.21 4.21,-0.18 4.29,-0.51 0.14,-0.21 -3.95,0.09 -3.58,-0.3 0.01,-0.01 0.01,-0.01 0.02,-0.02 z m 6.02,0 c -0.01,0.05 -0.01,0.11 0.01,0.17 -0.03,0.37 -0.03,0.74 0.06,1.08 h 0.86 c -0.12,-0.2 -0.18,-0.44 -0.25,-0.66 -0.02,-0.21 0.02,-0.41 0.08,-0.6 z m 1.34,0 c -0.04,0.05 -0.08,0.1 -0.09,0.15 -0.08,0.11 -0.09,0.37 -0.29,0.32 -0.17,-0.17 -0.06,-0.32 0.03,-0.48 z m 0.62,0 c -0.06,0.05 -0.14,0.05 -0.22,0.03 -0.01,-0.01 -0.02,-0.02 -0.03,-0.02 z m 1.08,0 c -0.03,0.15 -0.12,0.29 -0.15,0.44 -0.05,0.04 -0.11,0.04 -0.17,0.04 -0.06,-0.15 -0.07,-0.32 -0.11,-0.48 z m 1.03,0 c 0,0 0,0 0,0 -0.02,0.15 -0.07,0.3 -0.2,0.37 -0.18,-0.04 -0.03,-0.3 -0.24,-0.35 -0.17,-0.08 -0.17,0.23 -0.32,0.05 -0.02,-0.02 -0.04,-0.05 -0.05,-0.08 z m 0.34,0 c 0.02,0.12 0.04,0.24 0.11,0.34 0.1,0.03 0.27,-0.01 0.28,0.15 0,0.27 -0.04,0.53 -0.13,0.76 h 0.42 c 0.04,-0.09 0.08,-0.19 0.09,-0.29 0.12,-0.16 0.27,0.01 0.39,0.03 0.37,0.12 0.78,0.17 1.16,0.26 h 1.79 c -0.18,-0.05 -0.37,-0.1 -0.57,-0.11 -0.35,-0.11 -0.72,-0.2 -1.13,-0.21 -0.55,-0.14 -1.2,-0.11 -1.58,-0.61 -0.03,-0.12 0.03,-0.23 0.14,-0.26 0.51,-0.02 1,-0.05 1.49,-0.06 z m 3.73,0 c 0.18,0.01 0.37,0.02 0.55,0.03 l 0.58,-0.03 c 0.06,0 0.13,0 0.19,0 z m 2.16,0 c 0.18,0.01 0.34,0.04 0.5,0.1 0.05,0.06 0.17,0.13 0.15,0.23 -0.57,0.08 -1.26,0.17 -1.86,0.04 -0.38,0.02 -0.75,-0.01 -1.15,0.02 -0.29,0.08 -0.64,-0.21 -0.84,0.11 -0.02,0.08 0.01,0.18 0.11,0.2 0.51,0.07 1.05,0.11 1.59,0.11 0.26,-0.06 0.55,-0.01 0.83,-0.01 0.66,0.01 1.45,-0.23 1.9,0.38 0.02,0.03 0.03,0.06 0.05,0.09 h 0.67 c -0.13,-0.21 -0.27,-0.42 -0.39,-0.63 -0.19,-0.21 -0.39,-0.41 -0.57,-0.63 z m 4.54,0 c 0.05,0.12 0.09,0.24 0.12,0.36 0.15,0.29 0.28,0.59 0.39,0.9 h 0.91 c -0.02,-0.04 -0.04,-0.08 -0.06,-0.12 -0.13,-0.4 -0.36,-0.77 -0.55,-1.14 z m 2.12,0 c 0.17,0.39 0.33,0.78 0.5,1.17 0.01,0.03 0.02,0.06 0.03,0.09 h 0.51 c -0.17,-0.42 -0.35,-0.83 -0.51,-1.25 z m -19.3,1.26 c 0.08,-0.02 0.15,-0.04 0.22,-0.06 0.11,-0.17 1.58,-0.16 1.5,-0.5 -0.02,-0.1 -2.85,0.34 -3.13,0.42 -0.21,0.05 -0.42,0.09 -0.64,0.13 z m 1.85,0 c 0.02,-0.01 0.03,-0.03 0.04,-0.04 -0.03,-0.12 -0.33,-0.04 -0.59,0.04 z"
   id="path66" />
	<path
   class="st1"
   d="m 215.72,193.73 c -0.31,0.48 -0.58,0.98 -0.82,1.5 h 0.79 c 0.25,-0.51 0.47,-1.03 0.83,-1.5 z m 2.07,0 c -0.11,0.15 -0.21,0.3 -0.31,0.45 -0.26,0.32 -0.45,0.67 -0.6,1.04 h 0.7 c 0.02,-0.05 0.05,-0.1 0.07,-0.15 0.25,-0.46 0.52,-0.91 0.83,-1.34 z m 5.25,0 c -0.11,0.09 -0.21,0.18 -0.32,0.26 -0.42,0.39 -0.88,0.8 -1.25,1.23 h 1.08 c 0.31,-0.3 0.91,-0.18 1.36,-0.18 l 2.01,0.07 c 0.35,0 0.6,0.08 0.97,0 0.07,-0.08 0.2,0.01 0.2,-0.14 0,-0.18 -0.47,-0.06 -0.7,-0.18 -0.57,-0.02 -1.12,-0.14 -1.68,-0.1 -0.48,0.04 -0.94,-0.09 -1.41,-0.11 -0.05,-0.03 -0.15,-0.09 -0.08,-0.16 0.43,-0.44 2.43,-0.06 2.82,-0.07 0.05,-0.02 0.08,-0.09 0.1,-0.14 -0.01,-0.11 -1.25,-0.27 -1.67,-0.48 z m 2.93,0 c 0.21,0.1 0.42,0.2 0.6,0.26 l 0.31,0.13 c 0.25,0.16 0.56,0.18 0.82,0.34 0.14,0.3 -0.16,0.49 -0.2,0.77 h 0.76 c 0.07,-0.23 0.19,-0.44 0.3,-0.65 0.21,-0.31 0.47,-0.64 0.8,-0.84 h -1.06 c -0.16,0.18 -0.31,0.41 -0.57,0.31 -0.19,-0.1 -0.38,-0.22 -0.58,-0.32 z m 5.37,0 c 0.09,0.05 0.18,0.12 0.27,0.18 0.2,0.11 0.37,0.29 0.54,0.45 0.07,0.05 0.04,0.16 0.03,0.23 -0.11,0.13 -0.41,0.14 -0.35,0.37 0.04,0.08 0.05,0.18 0.07,0.27 h 2.45 c 0.42,-0.01 0.85,-0.02 1.28,0 h 1.32 c 0.28,-0.01 0.56,-0.02 0.83,0 h 0.99 c -0.18,-0.2 -0.34,-0.41 -0.49,-0.63 -0.32,-0.25 -0.56,-0.59 -0.85,-0.87 h -0.82 c -0.37,0.07 -0.74,0.16 -1.1,0.27 l -0.77,0.05 c -0.33,-0.02 -0.67,0.01 -0.98,0.08 -0.41,0.02 -0.73,0.24 -1.11,0.33 -0.23,-0.08 -0.1,-0.39 -0.26,-0.54 -0.02,-0.07 -0.01,-0.13 0.02,-0.19 z m 1.74,0 c -0.05,0.02 -0.1,0.04 -0.15,0.06 -0.05,0.02 -0.05,0.08 -0.03,0.13 0.07,0.08 0.17,0.07 0.27,0.08 0.2,-0.1 0.4,-0.19 0.6,-0.27 z m 8.48,0 0.36,0.53 c 0.12,0.33 0.28,0.64 0.41,0.96 h 0.81 c -0.01,-0.02 -0.02,-0.04 -0.03,-0.06 -0.16,-0.5 -0.4,-0.98 -0.67,-1.44 z m 2.14,0 c 0.1,0.21 0.2,0.42 0.3,0.64 0.18,0.28 0.32,0.56 0.45,0.86 h 0.53 c -0.02,-0.06 -0.05,-0.13 -0.07,-0.19 -0.28,-0.4 -0.42,-0.87 -0.63,-1.3 z m -15.22,1.49 c 0.03,-0.06 0.06,-0.12 0.07,-0.18 0.09,-0.04 0.31,-0.13 0.35,0.04 0,0.06 -0.03,0.1 -0.07,0.14 z m 0.73,0 c -0.12,-0.11 -0.12,-0.31 -0.3,-0.38 -0.08,0.01 -0.2,0.02 -0.26,-0.03 -0.05,-0.04 -0.04,-0.12 -0.01,-0.17 0.18,-0.12 0.42,-0.13 0.64,-0.11 l 0.09,0.11 c 0.15,0.14 0.18,0.35 0.12,0.54 -0.01,0.01 -0.02,0.03 -0.03,0.04 z m 0.89,0 c -0.01,-0.04 -0.02,-0.07 -0.03,-0.11 -0.06,-0.16 -0.23,-0.32 -0.16,-0.5 0.02,-0.04 0.06,-0.08 0.11,-0.09 0.25,-0.02 0.39,0.24 0.48,0.42 0.04,0.1 0.04,0.19 0.02,0.28 z m 0.66,0 c -0.03,-0.07 -0.02,-0.17 0,-0.24 0.02,-0.15 0.16,-0.26 0.3,-0.3 0.14,-0.03 0.25,0.04 0.35,0.11 0.12,0.11 0.14,0.26 0.14,0.43 z m 4.55,-0.87 c 0.35,-0.07 0.69,-0.15 1.03,-0.23 0.3,0.02 0.63,-0.15 0.88,0.04 0.2,0.13 0.45,0.26 0.42,0.53 -0.22,0.17 -0.54,0.2 -0.82,0.15 -1.22,-0.04 -2.39,0.07 -3.6,0.09 l -0.54,0.04 c -0.08,-0.04 -0.09,-0.11 -0.07,-0.18 0.25,0.01 0.4,-0.19 0.63,-0.21 0.17,-0.08 0.39,-0.04 0.57,-0.09 l 0.91,-0.11 z"
   id="path68" />
	<path
   class="st1"
   d="m 217.1,191.73 c 0,0.01 -0.01,0.02 -0.01,0.02 -0.24,0.45 -0.63,0.82 -0.88,1.25 -0.17,0.24 -0.34,0.48 -0.49,0.72 h 0.79 c 0.04,-0.06 0.09,-0.11 0.13,-0.16 0.35,-0.62 0.88,-1.13 1.26,-1.73 0.03,-0.04 0.06,-0.07 0.09,-0.11 z m 2.22,0 c -0.56,0.63 -1.06,1.32 -1.53,2 h 0.69 c 0.2,-0.28 0.43,-0.55 0.67,-0.8 0.31,-0.36 0.52,-0.82 0.91,-1.1 0.04,-0.03 0.09,-0.06 0.13,-0.09 z m 6.88,0 c -0.75,0.28 -1.42,0.73 -2.11,1.13 -0.36,0.24 -0.71,0.57 -1.05,0.87 h 1.42 c -0.12,-0.06 -0.17,-0.13 -0.1,-0.2 0.37,-0.37 1.01,-0.08 1.61,0.2 h 1.17 c -0.14,-0.06 -0.28,-0.11 -0.44,-0.12 -0.39,-0.27 -0.85,-0.41 -1.29,-0.56 -0.07,-0.02 -0.04,-0.1 -0.03,-0.14 0.12,-0.19 0.3,-0.01 0.45,-0.02 0.2,0.13 0.46,0.14 0.7,0.2 0.32,0.21 0.69,0.27 1.03,0.44 0.07,0 0.12,-0.05 0.14,-0.11 0.02,-0.09 -0.05,-0.16 -0.12,-0.2 -0.19,0 -0.3,-0.17 -0.48,-0.19 -0.2,-0.18 -0.43,-0.3 -0.65,-0.45 -0.05,-0.05 -0.07,-0.15 -0.02,-0.2 0.08,-0.11 0.19,-0.21 0.33,-0.22 0.36,-0.1 0.48,0.34 0.76,0.43 0.41,0.22 0.53,0.68 0.88,0.95 l -0.01,0.08 c -0.04,0.03 -0.07,0.06 -0.1,0.1 h 1.06 c 0.02,-0.02 0.05,-0.03 0.08,-0.04 0.48,-0.21 1.12,-0.21 1.64,-0.09 0.1,0.03 0.19,0.08 0.28,0.13 h 1.07 c 0.02,-0.04 0.05,-0.08 0.09,-0.12 0.61,-0.6 1.36,-1.36 2.27,-0.91 l 0.12,0.12 c 0.01,0.24 -0.31,0.17 -0.45,0.3 -0.46,0.17 -0.91,0.4 -1.36,0.6 h 0.7 c 0.36,-0.15 0.73,-0.3 1.08,-0.49 0.62,-0.22 1.28,0 1.77,0.38 0,0.03 0.03,0.07 0.01,0.1 -0.01,0 -0.02,0 -0.03,0.01 h 0.82 c -0.11,-0.1 -0.23,-0.19 -0.36,-0.27 -0.44,-0.39 -0.94,-0.63 -1.43,-0.92 -0.44,-0.25 -0.94,-0.33 -1.36,-0.6 -0.17,-0.1 -0.35,-0.16 -0.54,-0.21 h -2.18 c 0,0.01 0,0.01 0.01,0.02 -0.04,0.4 -0.2,0.74 -0.34,1.1 -0.05,0.03 -0.05,0.08 -0.11,0.07 -0.17,-0.43 0.14,-0.76 0.11,-1.17 0,-0.01 0.01,-0.01 0.01,-0.02 h -0.49 c 0.01,0.29 -0.06,0.55 -0.13,0.81 -0.11,0.14 0.04,0.38 -0.17,0.47 -0.24,0.08 -0.54,0.08 -0.8,0.01 l -0.08,-0.08 c -0.06,-0.37 -0.04,-0.76 -0.05,-1.13 -0.01,-0.03 -0.02,-0.05 -0.03,-0.08 z m 3.76,0 c 0.02,0.02 0.03,0.04 0.04,0.07 0.01,0.22 -0.15,0.57 0.11,0.69 0.1,-0.01 0.17,-0.08 0.2,-0.17 l 0.02,-0.43 0.08,-0.16 z m 9.84,0 c 0.6,0.51 1.05,1.16 1.63,1.75 l 0.04,0.13 0.08,0.12 h 0.87 c -0.04,-0.06 -0.08,-0.13 -0.12,-0.19 -0.23,-0.24 -0.35,-0.52 -0.52,-0.79 -0.31,-0.33 -0.53,-0.69 -0.82,-1.01 z m 2.7,0 c 0.29,0.39 0.55,0.79 0.81,1.19 0.12,0.27 0.26,0.54 0.39,0.81 h 0.57 c -0.03,-0.06 -0.06,-0.12 -0.09,-0.18 -0.17,-0.27 -0.16,-0.63 -0.4,-0.88 -0.08,-0.31 -0.35,-0.55 -0.54,-0.82 -0.05,-0.04 -0.1,-0.08 -0.15,-0.13 z m -13.74,0.66 c -0.04,-0.17 -0.18,-0.39 -0.02,-0.56 0.04,-0.03 0.08,-0.05 0.12,-0.07 0.08,0.02 0.18,0 0.22,0.09 -0.08,0.37 -0.02,0.78 0.08,1.12 -0.04,0.14 -0.21,0.19 -0.33,0.25 -0.26,0.05 -0.32,-0.28 -0.53,-0.37 -0.23,-0.23 -0.39,-0.52 -0.67,-0.71 -0.03,-0.05 -0.02,-0.13 0,-0.19 0.09,-0.11 0.22,-0.13 0.35,-0.1 l 0.11,0.07 c 0.2,0.29 0.32,0.65 0.63,0.85 0.07,0.03 0.17,0 0.19,-0.08 0.04,-0.14 -0.12,-0.19 -0.15,-0.3 z m 3.47,0.41 c 0.05,0.01 0.11,0.05 0.15,0.01 0.28,-0.29 0.46,-0.94 1,-0.78 0.07,0.05 0.16,0.08 0.19,0.17 0.02,0.16 -0.14,0.14 -0.23,0.2 -0.39,0.42 -0.85,0.72 -1.25,1.13 -0.11,0.05 -0.19,-0.05 -0.27,-0.1 -0.33,-0.37 -0.02,-0.85 0.07,-1.22 0.15,-0.17 0.2,-0.48 0.49,-0.45 0.13,-0.02 0.23,0.03 0.34,0.07 l -0.01,0.09 c -0.2,0.22 -0.39,0.45 -0.54,0.69 -0.04,0.06 0,0.13 0.06,0.19 z"
   id="path70" />
	<path
   class="st1"
   d="m 218.91,189.73 c -0.05,0.06 -0.1,0.11 -0.15,0.17 -0.29,0.39 -0.62,0.71 -0.98,1.04 -0.18,0.28 -0.52,0.49 -0.68,0.79 h 0.9 c 0.51,-0.59 1.15,-1.08 1.62,-1.68 0.14,-0.09 0.28,-0.2 0.42,-0.32 z m 3.22,0 c -0.48,0.28 -0.96,0.58 -1.47,0.79 -0.5,0.35 -0.94,0.76 -1.34,1.21 h 0.87 c 0.57,-0.4 1.12,-0.87 1.74,-1.15 0.33,-0.23 0.68,-0.44 1.02,-0.65 0.14,-0.07 0.28,-0.14 0.41,-0.2 z m 15.19,0 c 0.06,0.04 0.11,0.07 0.17,0.11 0.78,0.36 1.33,1.16 2.04,1.68 0.09,0.07 0.18,0.14 0.27,0.21 h 1.17 c -0.05,-0.06 -0.11,-0.12 -0.16,-0.17 -0.35,-0.22 -0.58,-0.63 -0.97,-0.81 -0.46,-0.28 -0.86,-0.7 -1.3,-1.02 z m 3.21,0 c 0.29,0.28 0.56,0.58 0.87,0.83 0.43,0.34 0.77,0.74 1.09,1.17 h 0.59 c -0.26,-0.25 -0.41,-0.58 -0.71,-0.82 -0.32,-0.43 -0.7,-0.81 -1.1,-1.18 z m -11.03,2 c -0.01,-0.03 -0.01,-0.07 0,-0.1 0.05,-0.07 0.15,-0.06 0.22,-0.06 0.08,0.05 0.18,0.09 0.24,0.17 h 0.44 l 0.11,-0.22 c 0.08,-0.04 0.22,-0.02 0.24,0.09 0,0.04 0.01,0.08 0.01,0.13 h 0.49 c 0.03,-0.05 0.06,-0.12 0.13,-0.13 0.08,-0.01 0.15,0.06 0.18,0.13 h 2.18 c -0.25,-0.07 -0.51,-0.12 -0.74,-0.24 -0.62,-0.15 -1.26,-0.26 -1.92,-0.34 l -1.87,0.01 c -0.64,0.06 -1.25,0.18 -1.86,0.33 l -0.72,0.1 c -0.15,0.04 -0.3,0.09 -0.44,0.14 z"
   id="path72" />
	<path
   class="st1"
   d="m 226.16,185.73 c -0.29,0.05 -0.59,0.09 -0.86,0.18 -0.45,0.09 -0.85,0.32 -1.28,0.48 -0.79,0.42 -1.65,0.63 -2.39,1.19 -0.51,0.33 -0.97,0.79 -1.49,1.13 -0.41,0.34 -0.87,0.63 -1.24,1.03 h 1.13 c 0.11,-0.1 0.23,-0.19 0.34,-0.29 l 1.44,-1.13 c 0.48,-0.33 1,-0.57 1.49,-0.89 0.39,-0.2 0.83,-0.28 1.23,-0.47 0.15,-0.04 0.35,-0.05 0.48,0.05 0.34,0.46 0.84,0.88 1.44,0.75 0.36,-0.11 0.73,-0.19 1.02,-0.48 0.09,-0.09 0.41,-0.37 0.54,-0.4 0.17,-0.02 0.42,0.17 0.57,0.21 0.49,-0.04 0.66,0.04 1.1,-0.15 0.26,-0.14 0.51,-0.21 0.73,-0.43 0.14,0 0.4,0.24 0.52,0.3 0.36,0.23 1.14,0.24 1.57,0.34 0.02,0.01 0.02,0.03 0.02,0.05 -0.11,0.11 -0.77,-0.07 -0.9,-0.03 -1.14,-0.2 -2.3,0.05 -3.39,0.26 -0.95,0.29 -1.98,0.42 -2.89,0.8 -0.7,0.24 -1.35,0.62 -2.02,0.95 -0.41,0.14 -0.8,0.35 -1.18,0.57 h 1.24 c 0.54,-0.26 1.09,-0.5 1.63,-0.74 0.31,-0.2 0.69,-0.26 0.99,-0.48 1.2,-0.5 2.58,-0.57 3.88,-0.82 0.31,0.05 0.54,-0.08 0.84,-0.07 1.03,-0.04 1.99,0.15 2.93,0.36 0.35,0.13 0.7,0.28 1.06,0.41 0.51,0.29 1.06,0.51 1.59,0.79 0.36,0.13 0.7,0.33 1.03,0.55 h 1.22 c -0.19,-0.14 -0.38,-0.26 -0.59,-0.34 -0.74,-0.39 -1.5,-0.73 -2.22,-1.17 -0.44,-0.2 -0.89,-0.36 -1.36,-0.49 -0.05,-0.04 -0.09,-0.11 -0.05,-0.16 0.17,-0.12 0.39,-0.14 0.57,-0.26 0.17,-0.2 0.41,-0.32 0.53,-0.55 0.65,0.27 1.27,0.6 1.9,0.94 0.79,0.31 1.56,0.71 2.25,1.25 0.36,0.2 0.66,0.48 0.96,0.78 h 0.74 c -0.28,-0.26 -0.57,-0.51 -0.85,-0.76 -0.35,-0.17 -0.63,-0.51 -0.97,-0.7 -0.42,-0.14 -0.76,-0.45 -1.15,-0.63 -0.57,-0.31 -1.12,-0.65 -1.73,-0.89 -0.18,-0.11 -0.39,-0.15 -0.57,-0.28 -0.43,-0.19 -0.82,-0.46 -1.29,-0.57 -0.24,-0.08 -0.51,0.08 -0.72,-0.05 -0.01,-0.04 -0.02,-0.08 -0.03,-0.12 h -0.52 c 0.05,0.41 0.17,0.83 0.32,1.16 0.1,0.08 0.21,0.17 0.34,0.11 0.05,-0.02 0.11,-0.02 0.15,-0.09 -0.03,-0.22 -0.14,-0.41 -0.22,-0.61 0,-0.06 0.07,-0.08 0.11,-0.08 0.23,-0.02 0.38,0.17 0.6,0.19 0.03,0.02 0.02,0.25 -0.03,0.39 -0.01,0.14 -0.23,0.16 -0.3,0.26 -0.08,0.1 -0.17,0.13 -0.29,0.13 -0.44,-0.04 -0.73,-0.4 -0.97,-0.75 l -0.2,-0.71 h -1.23 c 0.1,0.16 0.19,0.27 0.25,0.34 0.17,0.2 0.49,0.61 0.15,0.52 -0.47,-0.14 -0.98,-0.54 -1.27,-0.86 h -0.49 c -0.32,0.33 -0.87,0.73 -1.23,0.86 -0.33,0.11 0.05,-0.39 0.22,-0.59 0.05,-0.06 0.13,-0.15 0.2,-0.27 h -0.88 c -0.02,0.01 -0.05,0.02 -0.07,0.03 -0.12,0.05 -0.24,0 -0.34,-0.03 h -0.19 c -0.04,0.02 -0.08,0.07 -0.11,0.15 -0.04,0.48 -0.46,1 -0.93,1.18 -0.26,0.04 -0.6,0.16 -0.85,-0.01 -0.18,-0.18 -0.25,-0.42 -0.2,-0.67 0.04,-0.28 0.34,-0.32 0.55,-0.37 0.1,-0.01 0.24,-0.03 0.29,0.08 0.08,0.34 -0.65,0.36 -0.26,0.69 0.33,0.02 0.58,-0.21 0.79,-0.45 0.11,-0.16 0.19,-0.37 0.23,-0.6 z"
   id="path74" />
	<path
   class="st1"
   d="m 227.57,185.73 c 0.07,-0.38 0.03,-0.81 -0.15,-1.15 0.12,-0.07 0.77,0.16 0.84,0.33 0,0.22 -0.04,0.48 0.18,0.59 0.14,0.05 0.29,-0.14 0.35,0.05 0.01,0.1 -0.06,0.15 -0.13,0.18 h 0.88 c 0.17,-0.27 0.34,-0.72 0.33,-1.49 -0.02,-1.13 -0.76,-1.39 -1.08,-1.41 -0.32,-0.02 -0.54,-0.03 -0.42,-0.16 0.12,-0.13 0.65,-0.15 1.03,-0.07 0.38,0.08 1.21,0.81 1.21,0.81 0,0 0.83,-0.73 1.21,-0.81 0.38,-0.08 1.1,-0.13 1.22,0 0.12,0.13 -0.09,0.12 -0.4,0.14 -0.32,0.02 -1.26,0.36 -1.28,1.49 -0.01,0.73 0.17,1.2 0.35,1.49 h 1.23 l -0.02,-0.06 c -0.15,-0.14 -0.37,-0.04 -0.55,-0.1 -0.14,-0.05 -0.34,-0.07 -0.4,-0.25 -0.02,-0.11 -0.06,-0.28 0.07,-0.32 l 0.11,-0.09 c 0.01,-0.07 0.17,-0.07 0.26,-0.06 0.21,-0.02 0.26,0.32 0.49,0.26 0.27,0.02 0.33,-0.41 0.53,-0.51 0.43,-0.34 0.52,-0.23 0.79,-0.36 l 0.02,0.03 v 0.03 c -0.38,0.26 -0.78,0.48 -0.82,0.95 -0.01,0.16 0,0.32 0.02,0.49 h 0.52 c -0.03,-0.29 0.17,-0.55 0.22,-0.83 0.24,-0.41 0.77,-0.14 1.1,-0.38 0.11,-0.1 0.11,-0.27 0.09,-0.39 -0.23,-0.29 -0.5,-0.52 -0.88,-0.48 -0.57,0.09 -1.05,0.39 -1.5,0.77 -0.26,0.21 -0.49,-0.09 -0.74,-0.14 -0.22,-0.06 -0.36,-0.3 -0.38,-0.52 0,-0.24 0.26,-0.39 0.43,-0.53 0.36,-0.31 0.88,-0.17 1.29,-0.05 0.15,-0.02 0.27,-0.19 0.3,-0.33 0.03,-0.18 -0.01,-0.38 -0.11,-0.53 -0.17,-0.1 -0.34,-0.18 -0.54,-0.21 -0.64,-0.05 -1.37,-0.14 -1.89,0.23 -0.26,0.13 -0.45,0.48 -0.78,0.45 -0.32,-0.25 -0.69,-0.32 -1.02,-0.53 l -0.52,-0.22 c -0.53,-0.1 -1.02,0.18 -1.28,0.63 -0.07,0.25 -0.23,0.61 0,0.85 0.08,0.11 0.21,0.14 0.34,0.11 0.19,-0.02 0.23,-0.23 0.34,-0.35 0.08,-0.08 0.19,-0.06 0.29,-0.05 0.18,0.05 0.37,0.21 0.44,0.39 0.08,0.25 -0.11,0.45 -0.27,0.61 -0.14,0.13 -0.38,0.11 -0.57,0.08 -0.63,-0.38 -1.31,-0.96 -2.12,-0.6 -0.34,0.17 -0.77,0.51 -0.77,0.91 0.17,0.29 0.45,-0.01 0.67,0 0.37,-0.04 0.72,0.03 0.96,0.3 0.07,0.21 -0.03,0.43 -0.19,0.57 -0.22,0.11 -0.47,0.16 -0.72,0.21 z m 0.68,0 c -0.07,-0.02 -0.13,-0.03 -0.19,0 z m 2.1,0 c 0.15,-0.16 0.26,-0.29 0.26,-0.37 0.01,0.08 0.09,0.22 0.23,0.37 z m -1.72,-0.83 c 0.13,-0.19 0.36,-0.38 0.6,-0.31 l 0.07,0.08 c 0.02,0.14 0.03,0.37 -0.08,0.48 -0.14,0.11 -0.39,0.07 -0.57,0 -0.07,-0.06 -0.05,-0.18 -0.02,-0.25 z"
   id="path76" />
	<path
   class="st1"
   d="m 251.15,200.23 c -0.09,-0.49 -0.08,-1.04 -0.14,-1.53 -0.22,-1.76 -0.59,-3.45 -1.25,-5.02 -0.09,-0.38 -0.26,-0.71 -0.48,-1.03 -0.11,-0.35 -0.33,-0.65 -0.51,-0.97 l -0.05,-0.12 c -0.85,-1.13 -1.35,-2.39 -2.38,-3.43 -1.08,-1.1 -2.15,-2.36 -3.43,-3.2 -0.82,-0.73 -1.71,-1.3 -2.61,-1.83 -0.5,-0.23 -0.96,-0.52 -1.44,-0.78 -0.49,-0.23 -1,-0.41 -1.52,-0.6 -0.85,-0.37 -1.87,-0.37 -2.74,-0.69 -0.59,-0.07 -1.19,-0.08 -1.77,-0.17 -0.92,-0.06 -1.85,-0.1 -2.75,-0.08 -0.69,-0.13 -1.43,-0.07 -2.06,0.13 -0.42,0.01 -0.81,0.13 -1.22,0.15 -0.7,-0.02 -1.27,0.28 -1.93,0.35 -0.24,0.05 -0.42,0.23 -0.67,0.23 -0.52,0.24 -1.1,0.33 -1.66,0.48 -0.44,0.07 -0.8,0.36 -1.23,0.48 -0.28,0.33 -0.73,0.28 -1.02,0.58 -1.17,0.51 -2.18,1.41 -3.35,1.94 -0.94,0.81 -2.07,1.41 -2.79,2.46 -0.37,0.35 -0.6,0.78 -0.94,1.14 -0.3,0.36 -0.41,0.78 -0.69,1.14 -0.2,0.55 -0.67,0.99 -0.85,1.54 -0.17,0.18 -0.16,0.44 -0.35,0.61 -0.17,0.43 -0.42,0.82 -0.6,1.24 -0.08,0.36 -0.31,0.63 -0.38,0.98 -0.23,0.45 -0.42,0.91 -0.51,1.43 -0.22,0.3 -0.26,0.67 -0.35,1.03 -0.2,1 -0.55,1.95 -0.61,3 -0.21,0.8 -0.03,1.62 -0.08,2.46 -0.15,0.26 0.05,0.51 -0.03,0.79 0.16,0.45 0.12,0.97 0.18,1.45 l 0.07,0.11 c 0.11,0.43 0.16,0.88 0.24,1.32 0.11,0.79 0.39,1.5 0.61,2.25 0.38,0.84 0.57,1.75 0.94,2.6 0.26,0.48 0.43,1 0.76,1.46 0.43,0.88 1.05,1.7 1.54,2.57 0.66,0.79 1.4,1.57 2.16,2.28 1.02,1.05 2.16,1.81 3.34,2.5 0.98,0.69 2.07,1.07 3.12,1.59 0.65,0.23 1.28,0.48 1.94,0.69 0.58,0.08 1.04,0.45 1.65,0.48 0.45,0 0.79,0.26 1.22,0.26 1.58,0.17 3.22,0.25 4.81,0.08 0.78,-0.08 1.58,-0.13 2.33,-0.26 1.41,-0.15 2.71,-0.54 3.97,-1.04 0.66,-0.42 1.41,-0.67 2.13,-0.94 1.16,-0.61 2.35,-1.16 3.39,-2.05 0.59,-0.37 1.1,-0.88 1.68,-1.32 0.59,-0.78 1.35,-1.47 1.97,-2.25 0.04,-0.18 0.16,-0.34 0.26,-0.51 0.52,-0.6 0.91,-1.27 1.37,-1.9 0.21,-0.46 0.6,-0.85 0.68,-1.37 0.19,-0.39 0.95,-2.5 1.19,-3.13 0.2,-0.94 0.49,-1.79 0.59,-2.77 0.05,-0.92 0.26,-1.8 0.21,-2.75 -0.01,-0.7 0.08,-1.38 0.04,-2.06 z m -0.83,4.33 c -0.08,0.18 -0.01,0.38 -0.06,0.57 -0.11,0.55 -0.17,1.12 -0.39,1.62 -0.34,1.32 -0.76,2.61 -1.3,3.85 -0.31,0.6 -0.65,1.18 -1.03,1.74 -0.48,0.78 -1.05,1.53 -1.59,2.27 -0.19,0.29 -0.49,0.46 -0.72,0.72 -0.32,0.67 -1.04,1.09 -1.57,1.58 -0.61,0.71 -1.4,1.03 -2.08,1.59 -0.77,0.65 -1.71,0.91 -2.53,1.44 -0.41,0.25 -0.87,0.36 -1.25,0.64 -0.34,0.09 -0.63,0.29 -0.97,0.36 -0.94,0.31 -1.97,0.42 -2.97,0.58 -0.56,0.16 -1.11,0.35 -1.74,0.35 -0.48,0.05 -1,0.09 -1.47,0.11 -0.39,0.03 -0.78,0.16 -1.16,0.04 -0.4,-0.14 -0.86,-0.05 -1.29,-0.04 -0.87,0.03 -1.74,-0.05 -2.5,-0.32 -0.66,-0.15 -1.26,-0.42 -1.95,-0.51 -0.78,-0.35 -1.63,-0.53 -2.4,-0.91 -1.02,-0.42 -2.03,-0.87 -2.92,-1.61 -0.53,-0.44 -1.16,-0.7 -1.67,-1.21 -0.69,-0.51 -1.45,-1.09 -1.9,-1.84 -0.33,-0.23 -0.54,-0.6 -0.74,-0.92 -0.08,-0.17 -0.29,-0.12 -0.33,-0.3 -0.37,-0.67 -0.84,-1.3 -1.22,-1.96 -0.2,-0.14 -0.2,-0.39 -0.35,-0.57 -0.44,-0.78 -0.88,-1.55 -1.13,-2.39 -0.26,-0.48 -0.36,-1.02 -0.6,-1.5 -0.13,-0.47 -0.25,-0.94 -0.3,-1.44 -0.02,-0.22 -0.2,-0.37 -0.27,-0.57 -0.21,-0.92 -0.24,-1.88 -0.38,-2.83 -0.05,-0.41 -0.17,-0.83 -0.15,-1.27 -0.06,-0.58 -0.05,-1.18 0.07,-1.74 -0.01,-0.84 0.36,-1.55 0.46,-2.36 0.22,-0.84 0.37,-1.71 0.78,-2.47 -0.01,-0.3 0.23,-0.51 0.25,-0.8 0.39,-0.78 0.58,-1.64 1.04,-2.39 0.27,-0.72 0.85,-1.31 1.1,-2.05 0.24,-0.56 0.7,-1.01 1.03,-1.53 0.35,-0.37 0.68,-0.81 1.11,-1.07 0.25,-0.19 0.48,-0.42 0.68,-0.64 0.76,-0.46 1.39,-1.2 2.17,-1.63 0.36,-0.14 0.63,-0.53 1,-0.64 0.52,-0.36 1.08,-0.61 1.63,-0.89 0.82,-0.31 1.53,-0.88 2.4,-1.03 0.65,-0.16 1.29,-0.31 1.96,-0.42 0.4,-0.12 0.85,-0.17 1.24,-0.31 0.6,-0.07 1.19,-0.17 1.79,-0.24 0.84,-0.15 1.73,-0.17 2.61,-0.2 0.63,0.05 1.25,0.04 1.86,0.12 l 1.11,0.19 c 0.36,-0.08 0.69,0.05 1.03,0.08 1.08,0.11 2.08,0.42 3.03,0.87 0.54,0.3 1.12,0.52 1.68,0.8 1.16,0.41 2.18,1.18 3.17,2.02 0.4,0.42 0.85,0.79 1.28,1.14 0.87,0.85 1.7,1.69 2.51,2.56 0.29,0.41 0.59,0.81 0.84,1.23 0.45,0.63 0.94,1.28 1.25,1.99 0.69,1.21 1.07,2.55 1.42,3.89 0.67,1.74 0.66,3.72 0.7,5.67 -0.2,0.81 -0.24,1.7 -0.27,2.58 z"
   id="path78" />
	<path
   class="st2"
   d="m 234.35,200.75 c 0.07,0.14 -0.06,0.13 -0.04,0.28 0.01,0.11 0.06,0.28 -0.08,0.33 -0.26,0.05 -0.18,-0.36 -0.45,-0.25 l -0.38,0.07 c -0.03,0.47 -0.01,1.1 -0.08,1.55 0.01,0.19 0.25,0.1 0.27,0.29 0,0.1 0,0.22 -0.11,0.23 -0.12,0.01 -0.2,0.05 -0.29,-0.01 -0.23,0.07 -0.54,0.11 -0.78,-0.01 -0.08,-0.06 -0.08,-0.17 -0.05,-0.25 0.1,-0.14 0.31,-0.1 0.32,-0.29 -0.01,-0.48 0.11,-1.08 0,-1.53 -0.08,-0.12 -0.32,-0.11 -0.4,-0.08 -0.19,0.04 -0.1,0.42 -0.28,0.38 l -0.1,-0.13 -0.04,-0.55 0.06,-0.05 c 0.7,0 1.45,0.05 2.13,-0.04 0.1,0.02 0.23,-0.02 0.3,0.06 z"
   id="path80" />
	<path
   class="st2"
   d="m 240.95,200.85 c 0,0.2 0.04,0.42 -0.03,0.6 -0.08,0.06 -0.2,0.01 -0.3,0.01 -0.06,-0.04 0.05,-0.22 0.01,-0.26 -0.08,-0.13 -0.2,-0.23 -0.35,-0.23 -0.08,0.01 -0.38,0.18 -0.4,0.26 0.01,0.54 0.89,0.43 1.12,0.85 0.21,0.38 0.11,0.67 -0.12,0.92 -0.3,0.29 -0.88,0.29 -1.23,0.11 -0.21,-0.01 -0.43,0.23 -0.6,0.02 l 0.2,-0.32 c 0.13,-0.2 0.09,-0.3 0.27,-0.45 l 0.07,0.01 c 0.1,0.36 0.18,0.53 0.57,0.54 0.26,0.01 0.43,-0.04 0.47,-0.17 0.06,-0.08 0.02,-0.19 0,-0.27 -0.26,-0.36 -1.06,-0.31 -1.24,-0.73 -0.08,-0.29 -0.11,-0.68 0.15,-0.89 0.32,-0.21 1,-0.31 1.36,-0.11 z"
   id="path82" />
	<path
   class="st2"
   d="m 223.61,200.78 c 0.1,0.17 0.06,0.43 0.04,0.63 -0.04,0.11 -0.17,0.1 -0.26,0.08 -0.17,-0.05 -0.07,-0.26 -0.24,-0.28 -0.14,-0.03 -0.32,-0.05 -0.42,0.06 -0.07,0.07 -0.09,0.31 -0.07,0.4 0.07,0.12 0.34,0.06 0.44,0.1 0.16,0.15 0.1,0.15 0.06,0.36 -0.04,0.2 -0.27,0 -0.45,0.04 -0.11,0.13 -0.07,0.58 -0.01,0.71 0.27,0.07 0.63,-0.04 0.76,-0.15 0.13,-0.11 0.16,-0.28 0.3,-0.32 0.08,0 0.18,0.04 0.19,0.13 -0.09,0.21 -0.03,0.54 -0.25,0.68 -0.57,0.23 -1.31,-0.01 -1.95,0.05 -0.11,-0.04 -0.1,-0.14 -0.08,-0.23 0.46,-0.42 0.28,-1.28 0.29,-1.85 -0.01,-0.15 -0.26,-0.28 -0.18,-0.42 l 0.08,-0.05 c 0.4,-0.03 0.95,0.06 1.35,0 0.14,-0.01 0.29,0 0.4,0.06 z"
   id="path84" />
	<path
   class="st2"
   d="m 230.54,200.88 c 0.01,0.08 0.01,0.17 -0.03,0.23 -0.11,0.04 -0.23,0.1 -0.32,0.21 0.05,0.45 0.01,0.93 0.01,1.36 0.08,0.11 0.28,0.08 0.31,0.25 0.06,0.14 0.03,0.26 -0.08,0.33 -0.21,0.1 -0.63,-0.02 -0.88,-0.01 -0.14,0.08 -0.33,0.03 -0.48,-0.03 -0.1,-0.08 -0.1,-0.15 -0.04,-0.27 0.08,-0.19 0.33,-0.08 0.4,-0.28 0.16,-0.38 0.03,-1.02 0.09,-1.44 -0.05,-0.17 -0.27,-0.03 -0.38,-0.17 -0.05,-0.06 -0.17,-0.3 -0.08,-0.3 0.45,0 0.89,-0.07 1.36,-0.01 0.06,0.01 0.1,0.07 0.12,0.13 z"
   id="path86" />
	<path
   class="st2"
   d="m 219.18,200.82 c 0.02,0.1 -0.05,0.1 -0.14,0.13 -0.06,-0.01 -0.11,0.04 -0.14,0.08 0.03,0.3 0.13,0.69 0.32,0.93 0.11,0.03 0.19,-0.09 0.23,-0.17 l 0.6,-0.87 c -0.23,-0.12 -0.11,-0.26 -0.11,-0.26 0.25,-0.04 0.66,-0.06 0.85,0 0.06,0.03 0.29,-0.06 0.23,0.12 -0.05,0.16 -0.24,0.12 -0.34,0.27 -0.46,0.65 -0.9,1.47 -1.27,2.08 -0.12,-0.01 -0.28,0.03 -0.32,-0.1 l -0.01,-0.25 -0.78,-1.68 c -0.06,-0.07 -0.17,-0.02 -0.24,-0.08 -0.1,-0.08 -0.08,-0.11 -0.06,-0.23 0.11,-0.14 0.31,-0.1 0.46,-0.15 0.26,0.03 0.61,-0.09 0.72,0.18 z"
   id="path88" />
	<path
   class="st1"
   d="m 237.95,202.75 c -0.35,-0.64 -0.75,-1.25 -1,-1.93 -0.05,-0.09 -0.13,-0.2 -0.23,-0.2 -0.1,0.02 -0.35,0.06 -0.38,0.17 -0.11,0.75 -0.56,1.35 -0.93,1.99 -0.13,0.09 -0.23,0.22 -0.37,0.28 -0.05,0.05 -0.03,0.11 0.02,0.15 0.29,-0.02 0.77,0 1.08,-0.01 0.04,-0.02 0.1,-0.04 0.09,-0.1 -0.01,-0.07 -0.07,-0.09 -0.12,-0.13 -0.04,-0.04 -0.02,-0.09 0,-0.13 0.16,-0.38 0.43,-0.27 0.69,-0.24 0.17,0.06 0.46,-0.07 0.5,0.26 0.01,0.1 -0.14,0.02 -0.2,0.05 -0.08,0.04 -0.14,0.11 -0.11,0.21 0,0.1 0.09,0.1 0.18,0.1 0.33,-0.05 0.62,-0.04 1.01,-0.05 0.15,0 -0.16,-0.3 -0.23,-0.42 z m -1.01,-0.49 c -0.11,0.09 -0.52,0.08 -0.67,0.07 -0.19,-0.05 0.19,-0.51 0.13,-0.64 0.04,-0.12 0.02,-0.32 0.16,-0.35 0.13,0 0.11,0.21 0.15,0.35 0.05,0.13 0.26,0.44 0.23,0.57 z"
   id="path90" />
	<path
   class="st1"
   d="m 238.19,190.74 c -0.05,-0.16 -0.12,-0.15 -0.35,-0.15 -0.32,0.09 -0.6,0.26 -0.82,0.55 -0.36,0.26 -0.72,0.57 -1.12,0.73 -0.14,0.1 -0.29,0.04 -0.43,0.11 -0.01,0.04 0,0.09 0.02,0.12 0.14,0.07 0.27,0.17 0.43,0.21 0.17,0.07 0.25,0.37 0.48,0.2 -0.01,-0.11 -0.11,-0.23 -0.02,-0.32 0.39,-0.12 0.56,0.08 0.84,0.3 0.06,0.07 0.08,0.13 0.02,0.22 -0.13,0.03 -0.27,0.09 -0.38,0 -0.03,0 -0.06,0.04 -0.06,0.07 0.01,0.21 0.38,0.44 0.5,0.56 0.1,0.19 0.41,0.37 0.61,0.41 0.06,-0.02 0.11,-0.09 0.11,-0.16 -0.14,-0.38 -0.25,-0.07 -0.08,-0.44 0.06,-0.11 0.21,-1.78 0.27,-1.88 -0.04,-0.32 -0.02,-0.53 -0.02,-0.53 z m -0.78,1.26 c -0.02,0.13 -0.5,-0.16 -0.59,-0.27 -0.05,-0.05 0.32,-0.3 0.34,-0.35 0.17,-0.12 0.2,-0.21 0.39,-0.3 l 0.03,0.03 c -0.02,0.21 -0.12,0.6 -0.17,0.89 z"
   id="path92" />
	<path
   class="st2"
   d="m 231.9,188.34 c -0.01,0.25 -0.05,0.51 -0.09,0.76 -0.02,0.05 -0.07,0.09 -0.12,0.08 -0.12,-0.01 -0.29,-0.02 -0.26,-0.55 -0.24,-0.27 -0.57,-0.13 -0.58,0.15 -0.03,0.81 -0.15,0.93 -0.07,1.48 0.12,0.14 0.12,0.35 0.3,0.45 0.04,0.08 -0.02,0.16 -0.1,0.17 -0.21,0.04 -0.38,-0.09 -0.58,-0.1 -0.26,-0.02 -0.52,0.05 -0.76,-0.03 -0.08,-0.04 -0.04,-0.13 -0.01,-0.18 0.53,-0.35 0.41,-1.04 0.46,-1.61 -0.01,-0.09 -0.06,-0.18 -0.14,-0.22 -0.44,-0.19 -0.36,0.14 -0.56,0.19 -0.04,0.05 -0.14,0.05 -0.19,0 -0.15,-0.11 -0.05,-0.29 -0.05,-0.44 0.04,-0.11 0.02,-0.29 0.17,-0.3 0.57,-0.07 1.19,0.05 1.75,-0.04 0.28,0.06 0.66,-0.07 0.83,0.19 z"
   id="path94" />
	<path
   class="st2"
   d="m 234.9,189.02 c 0.14,0.05 0.27,0.12 0.36,0.23 -0.03,0.29 -0.42,0.12 -0.53,0.35 -0.17,0.55 -0.81,1.18 -0.35,1.79 0.02,0.06 -0.02,0.12 -0.08,0.14 -0.23,0.01 -0.59,-0.3 -0.78,-0.41 -0.2,-0.05 -0.45,-0.04 -0.57,-0.23 0.02,-0.23 0.32,-0.17 0.46,-0.29 0.34,-0.14 0.37,-0.59 0.49,-0.88 0.04,-0.21 0.2,-0.41 0.15,-0.63 -0.1,-0.12 -0.34,-0.18 -0.23,-0.38 0.1,-0.17 0.29,-0.02 0.44,-0.03 0.11,0.15 0.49,0.25 0.64,0.34 z"
   id="path96" />
	<path
   class="st2"
   d="m 241.27,193.85 c 0.28,0.26 0.41,0.61 0.59,0.93 0.03,0.13 0.14,0.26 0.05,0.4 -0.1,0.14 -0.26,0.16 -0.42,0.16 -0.08,-0.04 -0.06,-0.14 -0.04,-0.2 0.12,-0.41 -0.05,-0.65 -0.39,-0.67 -0.06,0.22 -0.42,0.12 -0.32,0.38 0.08,0.11 0.21,0.24 0.18,0.39 0.01,0.16 -0.14,0.23 -0.26,0.29 l -0.1,-0.01 c -0.12,-0.17 -0.29,-0.3 -0.32,-0.49 -0.03,-0.04 -0.09,-0.07 -0.14,-0.03 -0.07,0.14 -0.32,0.22 -0.24,0.42 0.18,0.17 0.17,0.44 0.39,0.58 0.11,0.03 0.19,-0.04 0.3,-0.04 0.16,0.07 0.41,-0.03 0.51,0.12 0.02,0.17 -0.17,0.15 -0.27,0.2 -0.25,0.09 -0.54,0.22 -0.81,0.1 -0.28,-0.25 -0.29,-0.6 -0.55,-0.85 l -0.02,-0.09 c -0.2,-0.2 -0.36,-0.41 -0.6,-0.51 -0.07,-0.04 -0.05,-0.14 -0.03,-0.19 0.12,-0.27 0.33,0.01 0.52,-0.05 0.39,-0.2 0.8,-0.35 1.16,-0.63 0.15,-0.02 0.26,-0.17 0.34,-0.28 -0.02,-0.14 -0.07,-0.27 -0.03,-0.41 0.06,-0.04 0.14,-0.09 0.2,-0.03 0.17,0.14 0.19,0.35 0.3,0.51 z"
   id="path98" />
	<path
   class="st2"
   d="m 218.91,194.64 c 0.05,0.23 -0.23,0.38 -0.38,0.54 -0.11,0.22 -0.16,0.63 -0.02,0.86 0.13,0.2 0.3,0.47 0.55,0.49 l 0.51,-0.05 c 0.05,-0.13 0.19,-0.21 0.17,-0.37 -0.04,-0.41 -0.42,0.05 -0.51,-0.15 -0.02,-0.23 0.11,-0.57 0.28,-0.72 0.25,-0.05 0.48,0.12 0.68,0.27 0.09,0.04 0.24,0.02 0.26,0.16 v 0.14 c -0.08,0.32 -0.11,0.68 -0.26,0.97 -0.21,0.26 -0.42,0.35 -0.77,0.49 -0.2,0.08 -0.45,0.14 -0.64,0.06 -0.28,-0.26 -0.75,-0.4 -0.83,-0.83 -0.33,-0.58 -0.02,-1.46 0.32,-1.93 0.17,-0.1 0.53,-0.24 0.64,0.07 z"
   id="path100" />
	<path
   class="st1"
   d="m 223.45,210.64 c -0.04,-0.08 -0.13,-0.19 -0.23,-0.17 -0.48,0.2 -0.9,0.52 -1.41,0.67 -0.2,0.11 -0.4,0.24 -0.64,0.28 -0.2,0.07 -0.38,-0.04 -0.57,-0.05 -0.05,0.02 -0.08,0.08 -0.08,0.13 0.32,0.24 0.6,0.6 0.88,0.89 0.13,-0.11 0.05,-0.32 0.17,-0.44 0.14,-0.06 0.29,0.03 0.44,0.07 0.26,0.14 0.56,0.41 0.55,0.73 -0.02,0.07 -0.2,0.03 -0.26,0.05 -0.02,0.08 -0.13,0.07 -0.04,0.16 l 0.48,0.28 c 0.2,0.13 0.32,0.4 0.55,0.46 0.09,-0.02 0.07,-0.14 0.06,-0.21 -0.52,-0.96 0.25,-1.86 0.1,-2.85 z m -0.87,1.39 c -0.15,0.03 -0.37,-0.25 -0.47,-0.37 -0.05,-0.05 -0.06,-0.11 -0.04,-0.18 0.18,-0.11 0.55,-0.46 0.76,-0.48 l 0.03,0.04 c -0.01,0.25 -0.23,0.75 -0.28,0.99 z"
   id="path102" />
	<path
   class="st1"
   d="m 239.47,211.3 c -0.39,-0.1 -0.17,0.08 -0.56,-0.03 -0.28,-0.08 -1.17,-0.44 -1.45,-0.53 -0.17,-0.07 -0.39,-0.24 -0.57,-0.08 -0.1,0.29 0.09,0.53 0.06,0.84 0.12,0.43 0.33,1.2 0.18,1.35 -0.18,0.19 -0.29,0.35 -0.15,0.53 0.14,0.04 0.19,-0.08 0.29,-0.14 0.22,-0.17 0.5,-0.28 0.66,-0.52 -0.03,-0.14 -0.22,-0.05 -0.29,-0.16 -0.08,-0.21 0.24,-0.29 0.35,-0.44 0.17,-0.08 0.27,-0.32 0.48,-0.32 0.23,0.08 -0.02,0.25 0.01,0.39 0.02,0.02 0.05,0.07 0.08,0.06 0.35,-0.17 0.63,-0.55 0.95,-0.78 0.01,-0.05 0.01,-0.12 -0.04,-0.17 z m -1.98,0.77 c -0.14,-0.14 -0.24,-0.68 -0.21,-0.87 0.04,-0.06 0.19,0.08 0.24,0.11 l 0.47,0.21 c 0.03,0.02 0.12,0.05 0.13,0.08 -0.15,0.17 -0.4,0.54 -0.63,0.47 z"
   id="path104" />
	<path
   class="st2"
   d="m 220.59,207.43 0.02,0.14 c -0.15,0.42 -0.38,1.25 -0.4,1.72 0.04,0.07 0.28,-0.19 0.33,-0.22 0.26,-0.11 0.44,-0.4 0.71,-0.47 0.16,0.05 0.19,0.13 0.29,0.26 0.08,0.17 0.3,0.33 0.23,0.54 -0.18,0.16 -0.25,-0.17 -0.44,-0.11 -0.37,0.08 -0.66,0.33 -0.99,0.52 -0.18,0.24 -0.45,0.32 -0.66,0.51 -0.1,-0.05 -0.29,0.02 -0.29,-0.14 0.03,-0.57 0.35,-1.18 0.3,-1.77 -0.06,-0.08 -0.63,0.42 -0.7,0.46 -0.29,0.2 -0.15,0.19 -0.24,0.53 -0.08,0.03 -0.17,-0.06 -0.23,-0.11 -0.08,-0.16 -0.11,-0.34 -0.2,-0.49 -0.08,-0.08 -0.2,-0.16 -0.16,-0.29 0.38,0.04 0.42,0.03 0.75,-0.1 0.25,-0.18 1.21,-0.85 1.22,-0.95 0.02,-0.09 -0.12,-0.16 -0.07,-0.25 0.07,-0.09 0.2,-0.07 0.28,-0.02 0.11,0.03 0.2,0.13 0.25,0.24 z"
   id="path106" />
	<path
   class="st2"
   d="m 240.43,207.73 c 0.07,0.06 0.14,0.14 0.08,0.23 -0.28,0.1 -0.6,0.1 -0.84,0.29 -0.1,0.09 -0.26,0.18 -0.27,0.32 0.09,0.17 0.32,0.37 0.49,0.36 0.23,-0.1 -0.08,-0.45 0.25,-0.45 0.24,0.01 0.32,0.04 0.44,0.23 0.02,0.04 0.05,0.1 0.02,0.14 -0.1,0.08 -0.29,-0.01 -0.33,0.17 -0.01,0.08 0.01,0.27 0.1,0.33 0.08,0.12 0.23,0.15 0.37,0.12 0.17,-0.05 0.24,-0.23 0.34,-0.35 0.12,-0.25 -0.16,-0.41 -0.29,-0.58 -0.01,-0.1 0.05,-0.19 0.14,-0.23 0.33,0.07 0.53,0.31 0.83,0.44 0.02,0.1 -0.03,0.19 -0.08,0.26 -0.46,0.55 -0.76,1.05 -1.31,1.54 -0.06,0.04 -0.12,0.12 -0.18,0.09 -0.14,-0.14 0.18,-0.37 0.09,-0.5 -0.2,-0.27 -0.72,-0.81 -1.14,-0.97 -0.24,-0.07 -0.28,0.04 -0.43,0.21 -0.08,0.07 -0.18,0.1 -0.27,0.06 -0.1,-0.05 -0.09,-0.14 -0.06,-0.22 0.09,-0.24 0.39,-0.4 0.52,-0.62 0.24,-0.42 0.53,-0.67 0.82,-1.08 0.27,-0.19 0.46,0.14 0.71,0.21 z"
   id="path108" />
	<path
   class="st2"
   d="m 225.5,211.81 c 0.63,0.21 1.24,0.45 1.88,0.63 0.09,0.04 0.18,0.11 0.23,0.18 0.04,0.23 -0.14,0.39 -0.2,0.59 -0.06,0.05 -0.14,0.05 -0.2,0 -0.17,-0.17 -0.14,-0.6 -0.49,-0.51 -0.25,0.07 -0.27,0.43 -0.38,0.61 -0.07,0.3 -0.3,0.56 -0.29,0.88 0.08,0.18 0.2,0.25 0.33,0.39 0.03,0.06 -0.02,0.13 -0.08,0.15 -0.19,0.01 -0.31,-0.14 -0.48,-0.17 -0.31,-0.11 -0.68,-0.1 -0.96,-0.29 -0.04,-0.04 0,-0.08 0,-0.12 0.13,-0.06 0.27,-0.08 0.4,-0.14 0.29,-0.34 0.31,-0.79 0.51,-1.16 0.04,-0.14 0.19,-0.26 0.14,-0.41 -0.11,-0.09 -0.23,-0.13 -0.36,-0.15 -0.19,0.12 -0.29,0.33 -0.47,0.45 -0.06,-0.01 -0.14,-0.02 -0.17,-0.1 -0.01,-0.33 0.11,-0.6 0.26,-0.87 0.12,-0.03 0.23,0.01 0.33,0.04 z"
   id="path110" />
	<path
   class="st2"
   d="m 230.62,212.86 c -0.02,0.09 0.03,0.16 0.1,0.21 0.07,0.04 0.2,0.06 0.19,0.17 0.04,0.54 0.04,1.02 -0.27,1.45 -0.15,0.16 -0.35,0.19 -0.55,0.12 -0.49,-0.29 -0.15,-0.8 -0.26,-1.27 0.02,-0.17 -0.08,-0.4 0.09,-0.53 0.05,-0.04 0.13,-0.05 0.15,-0.12 -0.02,-0.04 -0.02,-0.1 -0.08,-0.12 -0.28,-0.04 -0.65,0.08 -0.93,-0.01 -0.07,-0.01 -0.15,0.02 -0.17,0.1 -0.05,0.08 0.02,0.15 0.09,0.17 0.12,0 0.17,0.1 0.22,0.19 0.18,0.64 -0.16,1.3 0.19,1.89 0.3,0.26 0.97,0.28 1.36,0.19 0.81,-0.39 0.39,-1.36 0.68,-2.06 0.1,-0.07 0.27,-0.05 0.32,-0.12 0.05,-0.08 0.09,-0.17 0.04,-0.26 -0.27,-0.1 -0.62,-0.04 -0.89,-0.04 -0.13,0 -0.23,-0.05 -0.28,0.04 z"
   id="path112" />
	<path
   class="st1"
   d="m 236.19,213.39 c -0.07,-0.07 -0.17,-0.11 -0.28,-0.08 -0.14,0.04 -0.17,0.19 -0.2,0.3 -0.05,0.16 -0.23,0.12 -0.38,0.14 -0.12,-0.04 -0.52,-0.28 -0.44,-0.4 0.16,-0.24 0.32,-0.62 0.06,-0.94 -0.25,-0.53 -0.94,-0.4 -1.35,-0.23 -0.31,0.21 -0.68,0.28 -0.99,0.48 -0.03,0.08 0.01,0.17 0.07,0.23 0.11,0.11 0.28,-0.04 0.4,-0.04 0.17,0.15 0.23,0.35 0.33,0.54 0.12,0.32 0.26,0.64 0.33,0.99 0.03,0.2 -0.16,0.41 0.01,0.54 0.19,-0.1 0.41,-0.14 0.61,-0.2 0.22,-0.13 -0.16,-0.62 -0.12,-0.79 0.03,-0.06 0.09,-0.09 0.16,-0.08 0.14,0.1 0.64,0.35 0.81,0.39 0.51,0 0.81,0.01 1.03,-0.5 0,-0.11 0.07,-0.26 -0.05,-0.35 z m -1.78,-0.12 c -0.08,0.08 -0.23,0.15 -0.33,0.11 -0.11,-0.09 -0.48,-0.76 -0.28,-0.86 0.25,-0.05 0.54,-0.01 0.68,0.26 0.06,0.16 -0.01,0.36 -0.07,0.49 z"
   id="path114" />
	<path
   class="st2"
   d="m 223.17,182.97 c 0.01,0.35 0.24,0.53 0.13,0.84 -0.08,0.09 -0.06,0.12 -0.18,0.12 -0.05,-0.02 -0.14,0.01 -0.16,-0.06 -0.02,-0.15 -0.18,-0.31 -0.32,-0.36 -0.16,-0.01 -0.68,0.21 -0.78,0.4 -0.05,0.12 -0.03,0.26 0.06,0.36 0.44,0.45 1.01,0.01 1.48,-0.04 0.2,0.02 0.37,0.14 0.54,0.26 0.29,0.32 0.45,0.76 0.31,1.19 -0.23,0.45 -0.65,0.96 -1.22,0.91 -0.2,0.06 -0.36,-0.2 -0.52,-0.04 -0.01,0.12 0.03,0.26 -0.1,0.31 -0.1,0.02 -0.21,0.01 -0.29,-0.06 -0.12,-0.17 0.03,-0.36 -0.02,-0.55 -0.03,-0.2 -0.2,-0.33 0.06,-0.48 0.31,-0.04 0.61,0.4 0.87,0.31 0.25,-0.08 0.38,-0.15 0.47,-0.41 0.04,-0.12 0.07,-0.27 -0.02,-0.38 -0.08,-0.09 -0.18,-0.15 -0.31,-0.15 -0.32,0.03 -0.51,0.35 -0.88,0.29 -0.34,-0.04 -0.66,-0.15 -0.87,-0.48 -0.17,-0.27 -0.34,-0.6 -0.21,-0.94 0.11,-0.3 0.37,-0.57 0.66,-0.69 0.21,-0.08 0.49,-0.15 0.71,-0.12 0.25,-0.05 0.15,-0.47 0.49,-0.31 z"
   id="path116" />
	<path
   class="st2"
   d="m 239.83,184.2 c 0.12,0.12 0.13,0.37 0.35,0.39 0.11,0.01 0.28,-0.04 0.31,0.11 -0.1,0.24 -0.38,0.32 -0.56,0.51 l -0.26,0.21 c -0.06,0.02 -0.11,-0.04 -0.13,-0.08 -0.14,-0.31 0.15,-0.35 -0.04,-0.63 -0.09,-0.13 -0.19,-0.3 -0.36,-0.33 -0.11,-0.01 -0.21,0.08 -0.26,0.17 -0.2,0.39 0.1,0.67 0.19,1 0.15,0.18 0.21,0.4 0.27,0.62 0.09,0.32 -0.04,0.62 -0.27,0.82 -0.35,0.26 -0.7,0.33 -1.15,0.2 -0.21,-0.12 -0.45,-0.2 -0.63,-0.39 l -0.24,-0.39 c -0.14,-0.04 -0.33,-0.01 -0.44,-0.14 -0.05,-0.08 0.02,-0.17 0.06,-0.24 l 0.64,-0.71 c 0.04,-0.04 0.14,-0.04 0.2,-0.01 0.08,0.04 0.08,0.13 0.11,0.2 -0.02,0.21 -0.25,0.33 -0.21,0.57 -0.03,0.28 0.26,0.44 0.45,0.57 0.13,0.06 0.33,0.07 0.46,0.01 0.17,-0.1 0.25,-0.29 0.18,-0.47 -0.02,-0.35 -0.45,-0.54 -0.51,-0.87 -0.05,-0.3 -0.17,-0.69 0.05,-0.94 0.29,-0.44 0.82,-0.53 1.31,-0.47 0.19,0.04 0.36,0.14 0.48,0.29 z"
   id="path118" />
	<path
   class="st2"
   d="m 219.01,185.21 c 0.04,0.28 -0.24,0.41 -0.02,0.66 0.24,0.43 0.77,0.78 0.97,1.22 0.13,0.17 0.22,0.37 0.42,0.46 0.22,0.13 0.47,-0.22 0.56,0.09 -0.09,0.23 -0.43,0.34 -0.59,0.5 -0.23,0.17 -0.51,0.39 -0.64,0.64 -0.06,0.05 -0.16,0.1 -0.23,0.04 -0.18,-0.26 0.18,-0.58 0.05,-0.87 -0.07,-0.2 -0.28,-0.35 -0.39,-0.54 -0.28,-0.47 -0.7,-0.92 -1.18,-1.19 -0.17,-0.08 -0.4,0.16 -0.5,-0.03 0.01,-0.14 0.15,-0.26 0.26,-0.33 0.32,-0.25 0.69,-0.42 0.99,-0.73 0.11,-0.04 0.27,-0.04 0.3,0.08 z"
   id="path120" />
	<path
   class="st2"
   d="m 241.6,186.47 c 0.21,0.18 0.22,0.44 0.18,0.71 -0.04,0.27 -0.3,0.43 -0.55,0.49 -0.26,0 -0.59,0 -0.71,-0.29 -0.09,-0.22 -0.02,-0.49 0.12,-0.68 0.12,-0.13 0.24,-0.28 0.4,-0.34 0.21,0 0.4,0 0.56,0.11 z"
   id="path122" />
	<path
   class="st2"
   d="m 216.35,187.6 c 0.05,0.08 0.02,0.2 -0.01,0.28 -0.08,0.09 -0.17,0.2 -0.3,0.14 -0.09,-0.04 -0.24,-0.22 -0.33,-0.12 -0.07,0.06 -0.27,0.47 -0.22,0.54 0.1,0.07 0.31,0.19 0.44,0.18 0.4,-0.05 0.95,-0.53 1.41,-0.38 0.25,0 1.01,0.14 1.01,0.93 0,0.23 0.01,0.5 -0.1,0.71 -0.17,0.32 -0.46,0.73 -0.85,0.8 -0.08,-0.02 -0.17,-0.02 -0.25,0.01 -0.11,0.11 -0.05,0.32 -0.2,0.39 -0.29,0.08 -0.34,-0.27 -0.47,-0.43 -0.09,-0.21 -0.15,-0.32 -0.19,-0.55 0.01,-0.05 0.06,-0.06 0.11,-0.08 0.49,-0.2 0.43,0.52 1.19,-0.04 0.13,-0.1 0.15,-0.26 0.15,-0.42 -0.11,-0.18 -0.03,-0.52 -0.52,-0.42 -0.49,0.09 -0.85,0.32 -1.31,0.41 -0.34,0.02 -0.63,-0.15 -0.86,-0.4 -0.14,-0.29 -0.21,-0.7 -0.05,-1 0.15,-0.2 0.52,-0.95 0.69,-0.85 0.27,0.07 0.47,0.13 0.66,0.3 z"
   id="path124" />
	<path
   class="st2"
   d="m 213.87,190.03 c 0.09,0.17 -0.1,0.3 -0.06,0.49 0.08,0.36 0.39,0.68 0.74,0.77 0.59,0.38 1.06,0.79 1.68,1.1 0.05,0.04 0.05,0.11 0.04,0.17 -0.27,0.3 -0.62,0.21 -1,0.22 -0.6,0.01 -1.23,0.03 -1.77,0.23 0.18,0.15 0.32,0.37 0.57,0.41 0.21,0.26 0.51,0.38 0.82,0.32 0.14,-0.01 0.18,-0.26 0.34,-0.19 0.1,0.05 0.13,0.16 0.1,0.26 -0.29,0.45 -0.44,0.96 -0.71,1.42 -0.04,0.08 -0.14,0.14 -0.2,0.06 -0.15,-0.14 0.01,-0.31 -0.04,-0.48 0.01,-0.37 -0.36,-0.55 -0.61,-0.75 -0.44,-0.29 -0.93,-0.54 -1.48,-0.51 -0.19,-0.02 -0.27,0.26 -0.48,0.19 -0.14,-0.09 -0.02,-0.27 0.02,-0.38 0.18,-0.32 0.33,-0.59 0.73,-0.67 0.59,-0.17 1.28,-0.31 1.93,-0.34 0.11,-0.01 0.18,-0.07 0.25,-0.15 -0.24,-0.23 -0.52,-0.42 -0.81,-0.59 -0.18,-0.11 -0.3,-0.2 -0.51,-0.24 -0.11,0.06 -0.21,0.2 -0.36,0.11 -0.07,-0.05 -0.17,-0.1 -0.18,-0.19 -0.02,-0.11 0.11,-0.15 0.13,-0.24 0.2,-0.37 0.25,-0.81 0.61,-1.08 0.11,-0.02 0.19,0 0.25,0.06 z"
   id="path126" />
	<path
   class="st2"
   d="m 211.48,195.94 c 0.12,0.17 0.49,0.05 0.43,0.34 -0.11,0.15 -0.49,0.01 -0.64,0.07 -0.2,0.14 -0.32,0.37 -0.3,0.66 0.01,0.11 0.06,0.3 0.16,0.35 0.17,0.04 0.54,0.21 0.66,0.01 0.01,-0.14 -0.02,-0.6 0.04,-0.64 0.15,-0.04 0.17,0.05 0.31,0.04 0.17,-0.01 0.41,0 0.37,0.07 -0.18,0.32 -0.18,0.51 -0.36,0.68 0,0.04 0.04,0.06 0.07,0.07 0.36,-0.03 0.74,0.21 1.07,0.24 0.07,-0.23 0.07,-0.65 0.13,-0.9 0.05,-0.39 -0.62,-0.54 -0.48,-0.92 0.07,-0.11 0.2,-0.11 0.3,-0.08 0.26,0.11 0.47,0.12 0.65,0.35 0.26,0.35 0.06,1.01 -0.09,1.34 -0.2,0.41 -0.23,1.6 -0.3,1.69 -0.06,0.05 -0.16,0.06 -0.23,0.01 -0.29,-0.22 -0.04,-0.79 -0.71,-0.83 -0.57,-0.04 -1.1,-0.27 -1.68,-0.39 -0.34,-0.03 -0.26,0.54 -0.61,0.39 -0.23,-0.31 0.31,-2.1 0.45,-2.58 0.05,-0.07 0.06,-0.06 0.13,-0.09 0.25,-0.03 0.42,0.11 0.63,0.12 z"
   id="path128" />
	<path
   class="st2"
   d="m 210.32,201.14 c 0.5,0.14 1.1,0.04 1.62,0.11 0.32,0 0.71,0.07 0.9,-0.21 0.03,-0.08 0.06,-0.22 0.16,-0.24 0.08,-0.01 0.2,-0.04 0.27,0.03 l 0.04,0.08 c -0.03,0.48 -0.07,0.93 0.04,1.38 0.01,0.13 0.02,0.26 -0.11,0.32 -0.3,0.06 -0.43,-0.44 -0.71,-0.5 -0.51,-0.14 -1.12,-0.08 -1.68,-0.09 -0.35,-0.02 -0.55,0.23 -0.77,0.49 -0.05,0.04 -0.28,0.02 -0.29,-0.17 -0.02,-0.43 -0.13,-0.7 -0.03,-1.18 0.03,-0.15 0.02,-0.37 0.19,-0.42 0.2,0.02 0.18,0.33 0.37,0.4 z"
   id="path130" />
	<path
   class="st2"
   d="m 213.22,204.1 c 0.11,0.02 0.29,-0.02 0.33,0.11 -0.05,0.26 0.07,0.39 0.1,0.62 0.1,0.46 0.53,1.72 0.53,1.9 -0.03,0.08 -0.11,0.17 -0.19,0.2 -0.41,0.03 -0.18,-0.36 -0.6,-0.27 -0.44,0.12 -1.44,0.41 -1.92,0.42 -0.08,0.02 -0.18,0.04 -0.19,0.12 -0.01,0.11 0.03,0.29 -0.11,0.32 -0.16,0.01 -0.25,-0.16 -0.33,-0.26 -0.17,-0.42 -0.56,-0.8 -0.42,-1.3 0.05,-0.1 0.14,-0.1 0.23,-0.11 0.24,0.02 0.2,0.4 0.46,0.35 0.26,-0.07 0.69,-0.1 0.97,-0.13 0.33,-0.21 1.26,0.04 1.2,-0.42 -0.19,-1.33 -0.6,-1.02 -1.03,-1.49 -0.13,-0.14 0.14,-0.12 0.21,-0.18 0.29,-0.03 0.5,0.09 0.76,0.12 z"
   id="path132" />
	<path
   class="st2"
   d="m 247.04,204.73 c 0.5,0.35 1.14,0.34 1.74,0.44 0.23,0.02 0.48,0.26 0.68,0.07 0.07,-0.11 0.11,-0.26 0.23,-0.33 0.11,-0.02 0.23,0.06 0.25,0.17 -0.05,0.3 -0.22,0.54 -0.27,0.83 -0.2,0.4 -0.34,0.84 -0.36,1.31 -0.04,0.09 -0.09,0.21 -0.2,0.24 -0.31,0.03 -0.57,-0.04 -0.85,-0.09 -0.1,-0.04 -0.22,-0.26 -0.11,-0.26 0.7,-0.01 1.04,-0.92 0.99,-1.04 -0.05,-0.11 -0.67,-0.13 -0.91,-0.21 -0.18,-0.06 0.11,0.52 -0.2,0.63 -0.26,0.05 -0.11,-0.04 -0.36,-0.02 -0.08,-0.04 -0.16,-0.11 -0.19,-0.2 -0.03,-0.11 -0.01,-0.23 0.08,-0.3 0.05,-0.03 0.1,-0.06 0.11,-0.12 0.03,-0.11 -0.11,-0.16 -0.22,-0.19 -0.29,-0.03 -0.74,-0.41 -0.91,-0.14 -0.08,0.36 -0.28,0.81 0.24,1.35 0.04,0.04 -0.01,0.11 -0.08,0.14 l -0.16,-0.02 -0.61,-0.42 c -0.11,-0.14 -0.04,-0.34 -0.01,-0.48 0.11,-0.43 0.25,-0.83 0.39,-1.25 0.08,-0.17 0.12,-0.37 0.29,-0.49 0.32,-0.01 0.21,0.29 0.44,0.38 z"
   id="path134" />
	<path
   class="st2"
   d="m 245.56,208.29 0.02,0.23 c 0.38,0.39 0.82,0.7 1.31,0.88 0.35,0.29 0.74,0.48 1.13,0.68 0.11,0.07 0.19,0.18 0.14,0.32 -0.37,0.42 -1.07,0.26 -1.59,0.26 -0.06,-0.02 -0.32,-0.08 -0.38,-0.07 -0.08,0.09 0.13,0.37 0.16,0.45 0.2,0.39 0.42,0.66 0.6,1.06 0.02,0.09 -0.05,0.14 -0.09,0.2 -0.38,0.04 -0.66,-0.26 -0.99,-0.39 -0.21,-0.08 -0.31,-0.23 -0.5,-0.3 -0.38,-0.13 -0.88,-0.63 -1.22,-0.36 -0.13,0.1 -0.24,0.02 -0.37,-0.08 0.02,-0.29 0.2,-0.56 0.34,-0.82 0.14,-0.08 0.08,-0.4 0.32,-0.3 0.24,0.11 -0.04,0.44 0.23,0.48 0.25,0.11 1.24,0.58 1.44,0.81 0.1,0.05 -0.82,-1.19 -0.83,-1.48 0.01,-0.11 1.68,0.11 1.7,0.03 -0.02,-0.13 -0.98,-0.53 -1.07,-0.58 -0.26,-0.01 -0.53,-0.41 -0.87,0.15 -0.05,0.08 -0.22,0.01 -0.26,-0.09 0.02,-0.11 0.12,-0.2 0.15,-0.31 0.17,-0.29 0.09,-0.72 0.45,-0.91 0.06,0 0.12,0.06 0.18,0.14 z"
   id="path136" />
	<path
   class="st2"
   d="m 243.14,212.64 c 0.11,0.32 0.54,0.4 0.79,0.66 0.42,0.27 0.66,0.92 1.2,0.92 0.2,-0.01 0.44,-0.12 0.54,0.05 0.09,0.28 -0.24,0.29 -0.38,0.42 -0.2,0.25 -0.45,0.47 -0.64,0.7 -0.06,0.04 -0.14,0.02 -0.19,-0.02 -0.09,-0.13 0.12,-0.31 0.04,-0.45 -0.11,-0.2 -0.6,-0.56 -0.82,-0.68 -0.36,-0.27 -0.5,-0.6 -0.93,-0.77 -0.25,-0.07 -0.48,0.29 -0.67,0.01 -0.01,-0.36 0.38,-0.52 0.52,-0.82 0.16,-0.13 0.23,-0.33 0.4,-0.44 0.21,0.03 0.08,0.3 0.14,0.42 z"
   id="path138" />
	<path
   class="st2"
   d="m 218.24,213.6 c 0.02,0.37 0.33,0.64 0.66,0.76 0.03,0.08 -0.03,0.17 -0.11,0.19 -0.17,0.08 -0.37,0.06 -0.56,0.08 -0.17,0.16 -0.19,0.1 -0.41,0.15 -0.08,0.03 -0.18,0 -0.21,-0.08 v -0.09 c 0.14,-0.11 0.24,-0.17 0.29,-0.37 0.02,-0.33 -0.28,-0.6 -0.55,-0.77 -0.14,-0.05 -0.25,-0.03 -0.39,0.04 -0.17,0.14 -0.07,0.31 -0.02,0.52 0.11,0.29 0.13,0.53 0.16,0.86 0,0.4 -0.08,0.76 -0.37,1.03 -0.24,0.14 -0.49,0.29 -0.8,0.2 -0.27,0.01 -0.43,-0.24 -0.62,-0.4 -0.17,-0.28 -0.37,-0.54 -0.48,-0.83 0.01,-0.19 0.22,-0.24 0.34,-0.33 l 0.47,-0.12 c 0.23,0.17 -0.12,0.29 -0.14,0.45 -0.02,0.24 0.07,0.45 0.27,0.59 0.18,0.06 0.36,0.03 0.51,-0.06 0.14,-0.1 0.06,-0.26 0.07,-0.41 -0.07,-0.55 -0.45,-1.03 -0.29,-1.62 0.06,-0.2 0.17,-0.41 0.37,-0.54 0.54,-0.2 1.11,0.02 1.52,0.38 0.15,0.1 0.23,0.24 0.29,0.37 z"
   id="path140" />
	<path
   class="st2"
   d="m 237.61,216.96 c -0.05,0.16 -0.33,0.2 -0.2,0.39 0.13,0.29 0.1,0.62 0.32,0.87 0.11,0.31 0.24,0.92 0.54,1.13 0.17,0.19 0.36,-0.04 0.59,0 0.08,0.06 0.13,0.16 0.12,0.26 -0.07,0.24 -0.35,0.16 -0.53,0.26 -0.51,0.19 -1.14,0.44 -1.64,0.66 -0.14,0.05 -0.16,0.31 -0.36,0.21 -0.22,-0.21 -0.21,-0.55 -0.4,-0.79 -0.02,-0.07 -0.02,-0.17 0.05,-0.21 0.13,-0.04 0.19,0.09 0.29,0.11 0.15,0.02 0.16,0.23 0.33,0.16 0.11,-0.14 0.58,-0.29 0.58,-0.29 l -0.23,-0.71 c -0.07,-0.07 -0.16,-0.09 -0.25,-0.07 -0.15,0.11 -0.08,0.32 -0.23,0.42 -0.09,0.02 -0.14,-0.09 -0.17,-0.15 -0.13,-0.24 -0.17,-0.35 -0.13,-0.63 0.16,-0.18 0.34,0.07 0.53,0.02 0.08,-0.06 0.04,-0.17 0.01,-0.25 -0.25,-0.19 -0.17,-0.89 -0.64,-0.7 -0.19,0.08 -0.51,0.16 -0.57,0.39 -0.08,0.14 -0.05,0.36 -0.24,0.4 -0.08,0.02 -0.16,-0.01 -0.18,-0.08 -0.03,-0.15 0.06,-0.25 0.07,-0.39 0,-0.14 -0.14,-0.36 0.05,-0.43 0.48,-0.2 1.03,-0.28 1.51,-0.48 0.17,-0.1 0.53,-0.35 0.73,-0.26 z"
   id="path142" />
	<path
   class="st1"
   d="m 249.49,196.43 c -0.06,-0.08 -0.14,-0.18 -0.24,-0.18 -0.32,0.12 -0.6,-0.06 -0.93,-0.05 -0.12,-0.04 -1.33,-0.08 -1.78,-0.3 -0.41,-0.19 -0.51,-0.52 -0.51,-0.52 -0.04,-0.14 -0.28,-0.21 -0.33,-0.08 -0.05,0.15 -0.02,0.42 0.07,0.62 0.14,0.29 0.17,0.49 0.28,0.76 0.02,0.09 0.11,0.12 0.19,0.1 0.09,-0.01 0.06,-0.34 0.04,-0.43 0.04,-0.08 0.21,0.05 0.29,0.03 0.16,-0.02 0.19,0.03 0.31,0.13 0.09,0.21 0.14,0.55 0.19,0.76 0.01,0.17 0.07,0.32 0.05,0.49 -0.04,0.08 -0.26,0.24 -0.36,0.22 -0.17,-0.04 -0.18,-0.3 -0.36,-0.3 -0.11,0.03 -0.08,0.15 -0.09,0.24 0.08,0.2 0.05,1.03 0.14,1.25 0.04,0.08 0.11,0.21 0.23,0.16 0.36,-0.23 0,-0.26 0.35,-0.54 0.36,-0.3 1.69,-1.46 1.95,-1.61 0.12,-0.06 0.36,-0.33 0.46,-0.44 0.06,-0.09 0.09,-0.21 0.05,-0.31 z m -2.02,1.04 c -0.08,0.01 -0.1,-0.09 -0.13,-0.14 l -0.11,-0.81 c 0.21,-0.15 0.98,0.1 1.3,0.09 0.25,-0.01 -0.86,0.71 -1.06,0.86 z"
   id="path144" />
	<path
   class="st1"
   d="m 244.9,188.24 c -0.02,-0.13 -0.18,-0.14 -0.29,-0.14 -0.82,0.23 -1.54,0.67 -2.35,0.93 -0.25,0 -0.51,0.05 -0.72,-0.08 -0.1,-0.01 -0.24,-0.1 -0.33,0 -0.03,0.11 0.01,0.2 0.06,0.29 0.32,0.2 0.52,0.73 0.88,0.73 0.15,0 -0.05,-0.24 0.22,-0.37 0.37,-0.18 0.69,0.32 0.89,0.6 0.04,0.12 0.01,0.26 -0.05,0.36 -0.05,0.09 -0.16,0.02 -0.27,0 -0.1,0.01 -0.18,-0.11 -0.24,0.01 -0.02,0.02 -0.02,0.17 -0.01,0.19 0.27,0.13 0.45,0.41 0.62,0.64 0.11,0.1 0.2,0.35 0.32,0.27 0.21,-0.15 0.07,-0.27 0.1,-0.43 0.06,-0.35 0.38,-0.82 0.53,-1.33 0.13,-0.55 0.56,-1.12 0.64,-1.67 z m -1.39,1.5 c -0.22,-0.01 -0.43,-0.28 -0.53,-0.44 0.11,-0.15 0.72,-0.45 0.88,-0.53 0.17,-0.06 -0.22,0.88 -0.35,0.97 z"
   id="path146" />
	<path
   class="st1"
   d="m 242.04,217.5 c -0.17,-0.63 -0.36,-1.26 -0.46,-1.92 -0.03,-0.26 -0.1,-0.56 -0.05,-0.82 0.09,-0.17 0.26,-0.32 0.28,-0.52 -0.03,-0.08 -0.12,-0.12 -0.21,-0.11 -0.2,0.21 -0.44,0.34 -0.69,0.45 -0.11,0.2 -0.24,0.09 -0.31,0.32 0.04,0.12 0.2,0.11 0.32,0.12 0.12,0.02 0.07,0.16 0.08,0.24 -0.17,0.33 -0.53,0.52 -0.83,0.69 -0.1,0.01 -0.17,-0.06 -0.22,-0.14 -0.16,-0.18 -0.05,-0.21 -0.07,-0.4 -0.02,-0.05 -0.08,-0.07 -0.14,-0.06 -0.29,0.26 -0.66,0.38 -0.93,0.67 -0.07,0.07 -0.2,0.09 -0.18,0.21 0.04,0.1 0.07,0.21 0.17,0.28 0.08,0.04 0.19,0.04 0.26,0 0.59,-0.31 0.97,0.55 1.48,0.82 0.38,0.1 0.88,0.73 1.13,0.7 0.2,-0.02 0.34,-0.1 0.47,-0.23 0.05,-0.12 -0.06,-0.21 -0.1,-0.3 z m -0.63,-0.39 c -0.15,-0.03 -0.68,-0.68 -0.8,-0.75 -0.04,-0.03 -0.09,-0.01 -0.11,-0.07 l 0.01,-0.08 c 0.14,-0.13 0.62,-0.63 0.74,-0.25 0.05,0.14 0.24,0.88 0.27,1.03 -0.02,0.07 -0.06,0.11 -0.11,0.12 z"
   id="path148" />
	<path
   class="st1"
   d="m 216.17,211.1 c -0.17,-0.34 -0.38,-0.99 -0.57,-0.98 -0.29,0.02 -0.01,0.47 -0.25,0.61 -0.11,0.07 -0.26,0.1 -0.39,0.05 -0.28,-0.14 -0.27,-0.25 -0.45,-0.63 -0.08,-0.16 -0.28,-0.35 -0.12,-0.54 0.12,-0.11 0.17,-0.33 0.37,-0.33 0.08,0.02 0.08,0.11 0.11,0.17 0.05,0.09 0.09,0.24 0.23,0.19 0.05,-0.02 0.13,-0.06 0.13,-0.13 -0.04,-0.36 -0.32,-0.6 -0.43,-0.94 -0.15,-0.18 -0.1,-0.54 -0.41,-0.57 -0.19,0.08 -0.06,0.34 -0.11,0.51 -0.23,0.3 -0.41,0.63 -0.7,0.91 -0.26,0.3 -0.48,0.66 -0.79,0.93 l -0.3,0.5 c -0.02,0.11 -0.17,0.35 -0.01,0.36 0.92,0.1 1.66,0.05 2.49,0.04 0.33,0.01 0.76,-0.09 1,0.19 0.1,0.07 0.12,0.2 0.23,0.24 0.09,0.03 0.17,0.04 0.24,-0.05 0.01,-0.2 -0.17,-0.36 -0.27,-0.53 z m -2.02,-0.31 c -0.23,-0.01 -0.6,0.02 -0.83,0.02 -0.05,-0.03 0.57,-0.61 0.59,-0.66 0.17,-0.17 0.27,0.19 0.27,0.19 0,0 0.08,0.31 0.19,0.37 0.01,0.06 -0.17,0.09 -0.22,0.08 z"
   id="path150" />
	<path
   class="st2"
   d="m 244.67,193.78 c -0.18,-0.33 -0.26,-0.59 -0.25,-0.79 0.01,-0.2 0.18,-0.42 0.2,-0.6 0.1,-0.24 0.33,-0.44 0.54,-0.61 0.2,-0.17 0.45,-0.3 0.73,-0.38 0.26,-0.01 0.52,-0.13 0.73,-0.12 0.21,0.01 0.41,0.07 0.59,0.16 0.18,0.09 0.29,0.25 0.46,0.39 0.51,0.66 0.59,1.38 0.31,1.53 l -0.08,0.05 -0.3,0.14 c -0.12,0.08 -0.21,0.09 -0.26,0.11 -0.05,0.03 -0.08,0.05 -0.11,0.05 -0.03,0.01 -0.06,0.01 -0.09,0 -0.03,-0.01 -0.04,-0.03 -0.05,-0.05 -0.01,-0.03 0.03,-0.1 0.1,-0.2 0.04,-0.05 0.07,-0.09 0.09,-0.12 0.1,-0.15 0.21,-0.18 0.25,-0.3 0.04,-0.13 0.01,-0.35 -0.02,-0.47 -0.04,-0.24 -0.2,-0.44 -0.45,-0.53 -0.25,-0.09 -0.54,-0.02 -0.87,0.08 -0.38,0.11 -0.61,0.22 -0.8,0.45 -0.19,0.22 -0.27,0.54 -0.18,0.81 0.02,0.11 0.06,0.18 0.1,0.22 0.03,0.18 0.51,0.72 0.6,0.7 0.13,0.08 -0.09,0.23 -0.09,0.23 -0.06,0.01 -0.91,-0.28 -1.15,-0.75 z"
   id="path152" />
	<path
   class="st2"
   d="m 223.99,220.74 c -0.06,-0.02 -0.14,-0.06 -0.16,-0.1 -0.02,-0.04 -0.03,-0.08 -0.01,-0.13 0.03,-0.08 0.29,-0.1 0.3,-0.1 0.07,-0.02 0.16,-0.16 0.28,-0.44 0.02,-0.05 0.19,-0.59 0.25,-0.8 0.01,-0.02 0.07,-0.36 0.08,-0.4 0.09,-0.24 0.02,-0.4 -0.04,-0.54 -0.06,-0.14 -0.16,-0.24 -0.38,-0.32 -0.23,-0.08 -0.32,-0.05 -0.47,0.01 -0.15,0.06 -0.27,0.13 -0.34,0.33 -0.02,0.05 -0.17,0.27 -0.18,0.31 l -0.41,0.77 c -0.1,0.34 -0.19,0.56 -0.15,0.62 0.02,0.02 0.04,0.05 0.07,0.09 0.07,0.07 0.16,0.2 0.14,0.25 -0.02,0.05 -0.04,0.08 -0.08,0.09 -0.03,0.01 -0.08,0.01 -0.13,-0.01 l -0.89,-0.39 c -0.06,-0.02 -0.1,-0.05 -0.12,-0.09 -0.02,-0.04 -0.03,-0.08 -0.01,-0.13 0.02,-0.06 0.08,-0.09 0.18,-0.1 0,0 0.26,0.04 0.28,0.02 0.03,-0.02 0.57,-1.06 0.57,-1.06 0.01,-0.03 0.27,-0.56 0.3,-0.64 0.11,-0.29 0.29,-0.48 0.54,-0.55 0.25,-0.07 0.52,-0.06 0.92,0.08 0.46,0.17 0.72,0.32 0.88,0.55 0.16,0.24 0.21,1.03 0.11,1.23 -0.04,0.09 -0.09,0.31 -0.12,0.36 l -0.13,0.65 c -0.01,0.02 -0.04,0.21 -0.05,0.23 -0.01,0.02 -0.06,0.17 -0.05,0.2 0,0.03 0.1,0.14 0.1,0.14 0.07,0.07 0.1,0.13 0.08,0.19 -0.02,0.04 -0.04,0.07 -0.08,0.09 -0.04,0.02 -0.09,0.02 -0.13,0 z"
   id="path154" />
	<path
   class="st1"
   d="m 252.65,199.64 c -0.16,-0.88 -0.16,-1.81 -0.48,-2.63 -0.23,-1.38 -0.73,-2.65 -1.19,-3.94 -0.23,-0.48 -0.39,-0.98 -0.73,-1.4 -0.17,-0.34 -0.39,-0.66 -0.54,-1 -0.35,-0.47 -0.51,-1.02 -0.86,-1.48 -0.44,-0.47 -0.75,-1.02 -1.16,-1.5 -0.38,-0.54 -0.91,-0.99 -1.29,-1.53 -0.37,-0.17 -0.48,-0.62 -0.85,-0.82 -0.14,-0.28 -0.49,-0.34 -0.64,-0.63 -0.46,-0.39 -0.87,-0.88 -1.36,-1.23 -0.73,-0.62 -1.64,-0.78 -2.35,-1.43 l -0.6,-0.3 c -0.53,-0.39 -1.16,-0.55 -1.72,-0.86 -0.48,-0.24 -0.98,-0.43 -1.46,-0.66 -0.4,-0.11 -0.77,-0.31 -1.19,-0.38 -0.11,0 -0.19,-0.11 -0.3,-0.09 -0.97,0.01 -1.79,-0.36 -2.7,-0.48 -0.82,-0.02 -1.63,-0.17 -2.44,-0.27 -0.36,0.05 -0.73,-0.02 -1.07,0.05 -0.66,0.05 -1.32,0.06 -1.96,0.15 -0.95,0.17 -1.94,0.24 -2.79,0.65 -0.94,0.32 -1.89,0.64 -2.82,0.98 -0.2,0.12 -0.41,0.19 -0.64,0.23 -0.57,0.15 -1.02,0.55 -1.59,0.69 -0.6,0.36 -1.27,0.51 -1.8,1.03 -0.6,0.25 -1.16,0.62 -1.69,1.05 -0.63,0.28 -1.18,0.77 -1.72,1.23 -0.55,0.64 -1.23,1.13 -1.78,1.74 -0.19,0.29 -0.44,0.56 -0.61,0.85 -0.28,0.33 -0.54,0.66 -0.79,1.01 -0.35,0.33 -0.57,0.73 -0.81,1.12 -0.27,0.55 -0.65,1.05 -0.93,1.59 -0.12,0.4 -0.33,0.76 -0.48,1.16 -0.28,0.46 -0.45,0.97 -0.64,1.47 -0.16,0.55 -0.4,1.06 -0.51,1.63 -0.06,0.2 -0.22,0.35 -0.17,0.58 -0.17,0.42 -0.2,0.91 -0.28,1.36 -0.02,0.74 -0.29,1.39 -0.29,2.13 0,0.62 -0.04,1.26 -0.05,1.87 0.03,1.04 0,2.11 0.13,3.13 0.08,0.45 0.06,0.91 0.21,1.32 0.3,1.16 0.53,2.35 0.97,3.45 0.22,0.82 0.62,1.56 0.91,2.34 0.24,0.42 0.6,0.79 0.75,1.25 0.32,0.5 0.53,1.06 0.95,1.5 0.06,0.16 0.28,0.26 0.29,0.44 0.23,0.26 0.4,0.56 0.6,0.85 0.3,0.29 0.51,0.63 0.81,0.91 0.07,0.26 0.37,0.39 0.48,0.62 0.25,0.23 0.57,0.4 0.74,0.71 0.46,0.18 0.73,0.64 1.13,0.93 1,0.87 2.07,1.58 3.19,2.19 0.51,0.2 0.97,0.52 1.46,0.74 0.66,0.33 1.35,0.58 2.02,0.88 0.6,0.06 1.12,0.38 1.74,0.36 0.23,0.01 0.42,0.15 0.66,0.15 0.82,0.18 1.63,0.39 2.46,0.55 1.31,0.05 2.69,0.27 4,0.05 1.8,0.04 3.47,-0.26 5.08,-0.69 0.75,-0.28 1.53,-0.46 2.29,-0.73 0.89,-0.49 1.87,-0.77 2.75,-1.28 0.23,-0.1 0.43,-0.27 0.67,-0.34 0.65,-0.32 1.21,-0.87 1.83,-1.25 0.89,-0.56 1.74,-1.24 2.55,-1.93 0.7,-0.79 1.43,-1.6 1.97,-2.48 0.66,-0.82 1.26,-1.67 1.71,-2.59 0.09,-0.07 0.11,-0.19 0.17,-0.28 0.03,-0.23 0.16,-0.42 0.26,-0.63 0.22,-0.68 0.64,-1.28 0.88,-1.96 0.17,-0.37 0.26,-0.78 0.35,-1.19 0.26,-0.72 0.5,-1.44 0.66,-2.19 0.23,-1.36 0.52,-2.7 0.66,-4.1 0.17,-0.85 -0.02,-1.77 -0.05,-2.67 z m -0.59,3.62 c -0.13,1.21 -0.33,2.47 -0.61,3.61 -0.09,0.89 -0.63,1.51 -0.78,2.37 -0.21,0.5 -0.29,1.15 -0.6,1.62 -0.37,0.71 -0.71,1.3 -1.04,2.02 -0.46,0.88 -2.35,3.92 -4.16,5.09 -0.7,0.47 -1.38,0.98 -2.05,1.53 l -0.89,0.54 c -0.43,0.07 -0.72,0.5 -1.1,0.69 -0.28,0.19 -0.61,0.27 -0.92,0.42 -0.92,0.48 -1.83,0.97 -2.84,1.24 -0.75,0.32 -1.6,0.43 -2.36,0.75 -0.99,0.15 -1.98,0.3 -2.98,0.41 -1.03,-0.02 -2.05,0.21 -3.04,0.02 -0.59,-0.15 -1.27,-0.12 -1.88,-0.14 -0.27,0.02 -0.47,-0.13 -0.73,-0.16 -0.69,-0.12 -1.32,-0.37 -2.04,-0.42 -0.83,-0.16 -1.59,-0.47 -2.39,-0.71 -0.17,-0.11 -0.37,-0.11 -0.55,-0.18 -0.79,-0.48 -1.68,-0.76 -2.45,-1.28 l -0.15,-0.07 c -0.6,-0.5 -1.25,-0.87 -1.89,-1.27 -0.71,-0.57 -1.49,-1.02 -2.17,-1.68 -0.46,-0.38 -0.8,-0.89 -1.2,-1.32 -0.34,-0.26 -0.56,-0.6 -0.87,-0.9 -0.56,-0.62 -0.86,-1.37 -1.41,-2.01 -0.45,-0.6 -0.65,-1.29 -1.01,-1.92 -0.2,-0.5 -0.48,-0.95 -0.66,-1.46 -0.31,-0.79 -0.46,-1.65 -0.81,-2.42 -0.13,-0.55 -0.32,-1.08 -0.38,-1.66 -0.11,-0.85 -0.34,-1.7 -0.23,-2.61 -0.07,-0.51 -0.11,-1.1 -0.04,-1.6 -0.08,-0.2 0.02,-0.41 0.04,-0.6 -0.08,-0.42 0.11,-0.83 -0.01,-1.24 0,-0.73 0.25,-1.33 0.23,-2.08 0.08,-0.47 0.19,-0.94 0.23,-1.43 0.14,-0.27 0.18,-0.57 0.32,-0.84 0.04,-0.51 0.29,-0.93 0.41,-1.4 0.19,-0.56 0.43,-1.11 0.75,-1.62 0.31,-0.57 0.57,-1.17 0.8,-1.78 0.45,-0.6 0.74,-1.27 1.3,-1.85 0.28,-0.53 0.72,-1.01 1.11,-1.48 0.17,-0.47 0.65,-0.72 0.98,-1.1 0.69,-0.69 1.45,-1.24 2.25,-1.69 0.5,-0.3 0.96,-0.69 1.47,-0.97 0.08,-0.14 0.25,-0.13 0.37,-0.22 0.84,-0.53 1.67,-1.09 2.58,-1.46 1.13,-0.63 2.38,-0.95 3.61,-1.36 0.44,-0.09 0.89,-0.19 1.3,-0.35 0.4,-0.02 0.73,-0.18 1.1,-0.26 0.38,-0.1 0.8,-0.1 1.17,-0.23 0.84,-0.13 1.66,0.08 2.51,0.06 0.34,0.03 0.65,-0.07 1,-0.03 0.21,0.02 0.42,0.01 0.61,-0.03 0.66,-0.02 1.27,0.11 1.88,0.22 0.3,0.09 0.6,0.16 0.91,0.23 0.4,0.01 0.72,0.25 1.12,0.31 0.4,0.14 0.84,0.18 1.24,0.31 0.99,0.41 2.01,0.76 2.98,1.24 0.71,0.52 1.53,0.75 2.22,1.34 0.57,0.35 1.13,0.76 1.68,1.18 0.28,0.18 0.49,0.5 0.75,0.72 0.35,0.36 0.73,0.69 1.08,1.04 0.32,0.27 0.56,0.62 0.89,0.87 0.27,0.34 0.52,0.69 0.81,1.02 0.6,0.81 1.18,1.62 1.65,2.48 0.45,0.54 0.73,1.15 1.01,1.76 0.31,0.92 0.79,1.79 0.99,2.75 0.21,0.81 0.55,1.56 0.71,2.39 0.14,0.67 0.19,1.38 0.24,2.08 0.08,0.57 0.13,1.23 0.04,1.81 0.04,0.59 0.06,1.2 -0.1,1.71 z"
   id="path156" />
	<path
   class="st1"
   d="m 250.13,200.02 c -0.25,-0.37 -0.28,0.19 -0.38,0.32 -0.26,0.1 -0.58,0.18 -0.86,0.16 -0.56,-0.13 -0.97,0.13 -1.54,0 -0.1,-0.06 -0.29,0.06 -0.33,-0.07 -0.07,-0.12 -0.17,-0.26 -0.31,-0.24 -0.04,0.02 -0.08,0.04 -0.08,0.1 0.11,0.44 0.07,1.09 0.11,1.57 -0.01,0.3 0.58,1.09 0.77,1.23 0.31,0.22 0.68,0.23 1.1,0.23 0.37,0 0.68,-0.28 0.98,-0.54 l 0.31,-0.42 c 0.07,-0.12 0.05,-0.26 0.13,-0.37 0.05,-0.29 0.13,-0.65 0.13,-1.02 -0.02,-0.28 0.04,-0.67 -0.03,-0.95 z m -0.62,2.01 c -0.41,0.57 -1.18,0.46 -1.78,0.39 -0.19,-0.09 -0.41,-0.23 -0.48,-0.46 -0.02,-0.11 -0.07,-0.45 0,-0.55 0.27,-0.16 0.65,-0.09 0.95,-0.05 0.27,0.03 1.23,-0.14 1.34,-0.01 0,0.12 0.01,0.56 -0.03,0.68 z"
   id="path158" />
</g>
</svg>
